<?xml version="1.0" encoding="UTF-8"?>
<!DOCTYPE svg  PUBLIC '-//W3C//DTD SVG 1.1//EN'  'http://www.w3.org/Graphics/SVG/1.1/DTD/svg11.dtd'>
<svg version="1.1" viewBox="0 0 951 720" xmlns="http://www.w3.org/2000/svg">
<path d="m948.64 590c-5.193 75.732-175.29 125.74-379.93 111.7-204.64-14.037-366.31-86.811-361.12-162.54 5.196-75.738 175.29-125.75 379.93-111.71 204.64 14.04 366.31 86.814 361.11 162.55" fill="#574A34"/>
<path d="m894 314.25c0 141.25-197.78 255.75-441.75 255.75s-441.75-114.5-441.75-255.75 197.78-255.75 441.75-255.75 441.75 114.5 441.75 255.75z" fill="#B37E44"/>
<path d="m894 314.25c0 141.25-197.78 255.75-441.75 255.75s-441.75-114.5-441.75-255.75 197.78-255.75 441.75-255.75 441.75 114.5 441.75 255.75z" fill-opacity="0" stroke="#000" stroke-width="14.424"/>
<path d="m849 421.34c0 125-172.26 226.34-384.75 226.34-212.49 0-384.75-101.34-384.75-226.34s172.26-226.34 384.75-226.34c212.49 0 384.75 101.34 384.75 226.34z" fill="#B37E44"/>
<path d="m849 421.34c0 125-172.26 226.34-384.75 226.34-212.49 0-384.75-101.34-384.75-226.34s172.26-226.34 384.75-226.34c212.49 0 384.75 101.34 384.75 226.34z" fill-opacity="0" stroke="#000" stroke-width="9"/>
<path d="m25.5 322.5c2.187-10.602 5.838-20.853 9.999-30.834 4.206-9.978 9.12-19.653 14.604-28.992 10.965-18.69 24.228-36.012 39.132-51.759 29.961-31.434 66.408-56.25 105.46-74.985 39.117-18.792 80.835-31.749 123.26-40.536 21.228-4.389 42.663-7.737 64.185-10.233 5.382-0.621 10.77-1.188 16.164-1.707l8.091-0.738c2.796-0.27 5.466-0.27 8.19-0.366 10.845-0.264 21.684-0.207 32.52 0.048 43.323 1.248 86.562 5.697 129.16 13.674 42.561 8.04 84.582 19.695 124.47 36.756 39.786 17.049 77.601 39.744 108.9 69.903 15.573 15.093 29.415 31.989 40.857 50.391 11.466 18.384 20.514 38.244 27.006 58.878-6.726-20.562-15.984-40.284-27.627-58.488-11.619-18.216-25.59-34.884-41.253-49.722-31.278-29.85-68.973-52.308-108.66-69.126-39.783-16.833-81.699-28.29-124.15-36.132-42.486-7.791-85.614-12.039-128.78-13.143-10.791-0.294-21.591-0.393-32.376-0.171-2.679 0.084-5.424 0.081-8.016 0.324l-8.07 0.705c-5.376 0.498-10.746 1.038-16.113 1.641-21.462 2.403-42.831 5.658-63.996 9.948-42.294 8.586-83.886 21.333-122.9 39.888-38.958 18.492-75.291 43.071-105.27 74.202-15.009 15.504-28.413 32.607-39.558 51.12-5.574 9.252-10.584 18.852-14.895 28.761-4.266 9.921-8.028 20.118-10.335 30.693" fill="#C9A574"/>
<path d="m39 346.5c2.067-10.377 5.508-20.436 9.438-30.249 3.972-9.807 8.613-19.344 13.803-28.572 10.386-18.456 22.959-35.673 37.197-51.372 28.569-31.392 63.678-56.418 101.51-75.435 37.908-19.047 78.552-32.232 119.94-41.178 20.709-4.488 41.643-7.875 62.673-10.416 5.256-0.639 10.521-1.212 15.792-1.74l7.905-0.747c1.272-0.135 2.7-0.246 4.026-0.276l3.978-0.129c10.605-0.279 21.198-0.225 31.791 0.03 42.348 1.251 84.609 5.757 126.2 13.857 41.547 8.157 82.518 20.004 121.24 37.293 38.628 17.274 75.135 40.248 105.05 70.413 14.889 15.087 28.032 31.902 38.889 50.088 10.866 18.177 19.407 37.707 25.569 57.933-6.393-20.154-15.147-39.558-26.187-57.561-11.031-18.009-24.315-34.599-39.294-49.443-29.904-29.856-66.294-52.596-104.83-69.633-38.625-17.067-79.485-28.707-120.91-36.675-41.469-7.917-83.619-12.222-125.81-13.326-10.545-0.297-21.102-0.39-31.641-0.156l-3.945 0.114c-1.317 0.027-2.526 0.114-3.885 0.249l-7.884 0.717c-5.253 0.504-10.5 1.056-15.744 1.671-20.961 2.454-41.832 5.745-62.475 10.134-41.259 8.751-81.774 21.72-119.58 40.53-37.734 18.774-72.732 43.563-101.33 74.655-14.343 15.465-27.063 32.469-37.632 50.757-5.277 9.147-10.014 18.609-14.094 28.353-4.032 9.756-7.581 19.764-9.768 30.114" fill="#C9A574"/>
<path d="m52.5 376.75c1.95-10.149 5.193-20.013 8.892-29.658 3.744-9.636 8.121-19.026 13.023-28.134 9.807-18.219 21.726-35.292 35.268-50.958 27.207-31.29 60.897-56.607 97.533-75.852 36.678-19.317 76.23-32.769 116.59-41.88 20.193-4.572 40.626-8.034 61.161-10.617 5.133-0.654 10.278-1.236 15.423-1.767l7.725-0.765c2.553-0.303 5.283-0.366 7.821-0.444 10.359-0.294 20.712-0.243 31.062 0.012 41.379 1.248 82.668 5.823 123.24 14.052 40.53 8.286 80.448 20.346 118 37.878 37.464 17.502 72.633 40.773 101.16 70.917 14.199 15.075 26.673 31.779 36.93 49.752 10.284 17.958 18.333 37.149 24.171 56.964-6.066-19.746-14.325-38.82-24.786-56.61-10.431-17.802-23.046-34.29-37.344-49.128-28.527-29.844-63.579-52.875-100.95-70.146-37.449-17.304-77.247-29.157-117.66-37.254-40.452-8.046-81.624-12.423-122.84-13.53-10.302-0.294-20.619-0.384-30.909-0.135-2.625 0.078-5.067 0.114-7.647 0.405l-7.698 0.729c-5.13 0.513-10.257 1.074-15.372 1.704-20.469 2.493-40.836 5.862-60.963 10.335-40.227 8.916-79.65 22.155-116.22 41.232-36.54 19.002-70.125 44.082-97.365 75.078-13.653 15.435-25.725 32.307-35.712 50.367-4.989 9.027-9.465 18.345-13.314 27.924-3.801 9.588-7.152 19.404-9.219 29.529" fill="#C9A574"/>
<path d="m484.11 337.8s-221.35 9.222-209.06-136.81c0 0 1.035-96.186 139.23-143.33 0 0 47.898-20.058 52.776-42.822 0 0 28.242 27.705 74.046 34.692 95.925 14.634 171.27 69.225 164.1 166.58 0 0 2.562 137.07-221.1 121.7z"/>
<path d="m484.11 337.8s-221.35 9.222-209.06-136.81c0 0 1.035-96.186 139.23-143.33 0 0 47.898-20.058 52.776-42.822 0 0 28.242 27.705 74.046 34.692 95.925 14.634 171.27 69.225 164.1 166.58 0 0 2.562 137.07-221.1 121.7z" fill-opacity="0" stroke="#000" stroke-linecap="round" stroke-linejoin="round" stroke-width="24"/>
<path d="m467.62 17.679s27.576 60.54 124.75 70.008"/>
<path d="m478.52 12.651c0.012 0.171 0.306 0.885 0.522 1.404l0.789 1.746c0.564 1.185 1.182 2.388 1.842 3.588 1.317 2.4 2.79 4.785 4.368 7.122 3.162 4.677 6.762 9.177 10.704 13.425 7.881 8.511 17.109 16.038 27.228 22.422 20.262 12.837 43.956 20.94 68.397 25.329-24.816-0.432-50.136-4.554-73.932-14.685-11.877-5.043-23.316-11.577-33.795-19.74-5.241-4.08-10.23-8.565-14.895-13.5-2.328-2.472-4.581-5.052-6.729-7.791-1.074-1.371-2.124-2.781-3.15-4.251l-1.53-2.286c-0.528-0.84-0.96-1.497-1.608-2.727l-1.788-3.375c-3.234-6.114-0.9-13.698 5.217-16.932 6.117-3.237 13.698-0.903 16.932 5.214 0.846 1.593 1.311 3.348 1.428 5.037"/>
<path d="m470.09 22.395s-16.527 73.008 31.764 96.228"/>
<path d="m481.81 25.011c-0.591 1.563-1.221 3.753-1.761 5.724-0.546 2.028-1.053 4.089-1.506 6.171-0.912 4.158-1.644 8.382-2.169 12.63-1.041 8.493-1.302 17.115-0.3 25.599 1.005 8.469 3.273 16.86 7.512 24.438 4.197 7.581 10.491 14.22 18.276 19.05-8.622-3.006-16.746-8.325-23.142-15.54-6.438-7.182-11.097-15.981-14.319-25.155-3.228-9.207-5.076-18.831-6.027-28.5-0.471-4.842-0.708-9.702-0.729-14.586-0.012-2.445 0.036-4.893 0.141-7.362 0.126-2.526 0.24-4.821 0.6-7.704l0.072-0.561c0.834-6.642 6.888-11.349 13.53-10.515 6.636 0.831 11.346 6.888 10.512 13.527-0.117 0.954-0.369 1.923-0.69 2.784"/>
<path d="m466.58 25.458s-46.287 54.699-61.962 92.814"/>
<path d="m475.75 33.204c-6.516 6.234-13.086 12.918-19.452 19.599-6.381 6.711-12.642 13.554-18.723 20.559-6.078 7.005-11.985 14.169-17.574 21.588-5.577 7.428-10.875 15.09-15.378 23.322 2.655-9.009 6.273-17.793 10.224-26.394 3.969-8.604 8.316-17.04 12.87-25.359 4.56-8.322 9.339-16.524 14.277-24.642 4.968-8.139 9.978-16.089 15.426-24.165 3.729-5.526 11.232-6.984 16.758-3.255s6.981 11.232 3.255 16.758c-0.48 0.711-1.023 1.353-1.617 1.926l-0.066 0.063"/>
<path d="m484.11 337.8s-221.35 9.222-209.06-136.81c0 0 1.035-96.186 139.23-143.33 0 0 47.898-20.058 52.776-42.822 0 0 28.242 27.705 74.046 34.692 95.925 14.634 171.27 69.225 164.1 166.58 0 0 2.562 137.07-221.1 121.7z" fill="#FFFBD7"/>
<path d="m484.11 337.8s-221.35 9.222-209.06-136.81c0 0 1.035-96.186 139.23-143.33 0 0 47.898-20.058 52.776-42.822 0 0 28.242 27.705 74.046 34.692 95.925 14.634 171.27 69.225 164.1 166.58 0 0 2.562 137.07-221.1 121.7z" fill-opacity="0" stroke="#000" stroke-width="14.424"/>
<path d="m472.29 15.528c0.993 2.292 2.532 5.016 4.05 7.461 1.554 2.496 3.249 4.935 5.043 7.314 3.594 4.752 7.59 9.246 11.904 13.446 8.625 8.409 18.486 15.654 29.106 21.654 21.276 12.063 45.429 19.026 69.981 22.284-24.711-1.566-49.563-6.825-72.348-17.73-11.373-5.427-22.182-12.246-31.917-20.508-4.869-4.125-9.462-8.616-13.698-13.476-2.112-2.436-4.14-4.959-6.051-7.602-1.926-2.703-3.672-5.256-5.391-8.541-1.317-2.514-0.345-5.619 2.172-6.936 2.514-1.317 5.619-0.342 6.936 2.172 0.057 0.111 0.108 0.219 0.156 0.33l0.057 0.132"/>
<path d="m475.11 23.514c-2.112 8.226-3.39 17.217-3.885 25.992-0.471 8.829-0.132 17.739 1.509 26.427 1.641 8.673 4.59 17.181 9.459 24.645 4.824 7.476 11.643 13.734 19.668 18.045-8.382-3.531-15.987-9.225-21.75-16.542-5.808-7.296-9.783-15.978-12.369-24.951-2.595-9-3.837-18.336-4.218-27.672-0.33-9.396 0.054-18.591 1.563-28.182 0.441-2.808 3.075-4.725 5.88-4.281 2.805 0.438 4.725 3.072 4.281 5.877-0.024 0.162-0.057 0.318-0.096 0.471l-0.042 0.171"/>
<path d="m470.5 28.77c-6.213 6.765-12.336 13.809-18.303 20.907-5.97 7.113-11.805 14.346-17.451 21.726-5.643 7.383-11.103 14.91-16.23 22.668-5.109 7.764-9.93 15.747-13.902 24.201 3.183-8.784 7.281-17.25 11.7-25.515 4.431-8.265 9.225-16.335 14.214-24.282 4.995-7.944 10.197-15.759 15.549-23.472 5.367-7.722 10.824-15.309 16.578-22.86 1.722-2.259 4.947-2.694 7.206-0.972s2.694 4.947 0.972 7.206c-0.096 0.123-0.195 0.243-0.297 0.354l-0.036 0.039"/>
<path d="m254.61 484.8s-221.35 9.222-209.06-136.81c0 0 1.035-96.186 139.23-143.33 0 0 47.898-20.058 52.776-42.822 0 0 28.242 27.705 74.046 34.692 95.925 14.634 171.27 69.222 164.1 166.58 0 0 2.562 137.07-221.1 121.7z"/>
<path d="m254.61 484.8s-221.35 9.222-209.06-136.81c0 0 1.035-96.186 139.23-143.33 0 0 47.898-20.058 52.776-42.822 0 0 28.242 27.705 74.046 34.692 95.925 14.634 171.27 69.222 164.1 166.58 0 0 2.562 137.07-221.1 121.7z" fill-opacity="0" stroke="#000" stroke-linecap="round" stroke-linejoin="round" stroke-width="24"/>
<path d="m238.13 164.68s27.573 60.54 124.74 70.008"/>
<path d="m249.02 159.65c0.012 0.171 0.306 0.885 0.522 1.404l0.789 1.746c0.564 1.185 1.182 2.388 1.842 3.588 1.317 2.4 2.79 4.785 4.368 7.122 3.162 4.677 6.762 9.177 10.704 13.425 7.881 8.511 17.109 16.038 27.228 22.422 20.262 12.837 43.956 20.94 68.397 25.329-24.816-0.435-50.136-4.554-73.932-14.682-11.877-5.046-23.316-11.58-33.795-19.743-5.241-4.08-10.23-8.565-14.895-13.5-2.328-2.472-4.581-5.052-6.729-7.791-1.074-1.371-2.124-2.781-3.15-4.251l-1.53-2.286c-0.525-0.84-0.96-1.497-1.608-2.727l-1.788-3.375c-3.234-6.114-0.9-13.698 5.217-16.932 6.117-3.237 13.698-0.903 16.932 5.214 0.846 1.593 1.311 3.348 1.428 5.037"/>
<path d="m240.59 169.4s-16.527 73.008 31.764 96.228"/>
<path d="m252.31 172.01c-0.591 1.563-1.221 3.753-1.761 5.724-0.546 2.028-1.053 4.089-1.506 6.171-0.912 4.158-1.644 8.382-2.169 12.63-1.041 8.493-1.302 17.115-0.3 25.599 1.005 8.469 3.273 16.86 7.512 24.438 4.197 7.581 10.491 14.22 18.276 19.05-8.622-3.006-16.746-8.325-23.142-15.54-6.438-7.182-11.097-15.981-14.319-25.155-3.228-9.207-5.076-18.831-6.027-28.5-0.471-4.842-0.708-9.702-0.729-14.586-0.012-2.445 0.036-4.893 0.141-7.362 0.126-2.526 0.24-4.821 0.6-7.704l0.072-0.561c0.834-6.642 6.888-11.349 13.53-10.515 6.639 0.831 11.346 6.888 10.515 13.527-0.12 0.954-0.372 1.923-0.693 2.784"/>
<path d="m237.08 172.46s-46.287 54.699-61.962 92.814"/>
<path d="m246.25 180.2c-6.519 6.234-13.089 12.918-19.455 19.599-6.381 6.711-12.642 13.554-18.723 20.559-6.078 7.005-11.985 14.169-17.574 21.588-5.577 7.428-10.875 15.09-15.378 23.322 2.655-9.009 6.273-17.793 10.224-26.394 3.969-8.604 8.316-17.04 12.87-25.359 4.56-8.322 9.339-16.524 14.277-24.642 4.968-8.139 9.978-16.089 15.426-24.165 3.729-5.526 11.232-6.984 16.758-3.255s6.981 11.232 3.255 16.758c-0.48 0.711-1.023 1.353-1.614 1.926l-0.066 0.063"/>
<path d="m254.61 484.8s-221.35 9.222-209.06-136.81c0 0 1.035-96.186 139.23-143.33 0 0 47.898-20.058 52.776-42.822 0 0 28.242 27.705 74.046 34.692 95.925 14.634 171.27 69.222 164.1 166.58 0 0 2.562 137.07-221.1 121.7z" fill="#FFFBD7"/>
<path d="m254.61 484.8s-221.35 9.222-209.06-136.81c0 0 1.035-96.186 139.23-143.33 0 0 47.898-20.058 52.776-42.822 0 0 28.242 27.705 74.046 34.692 95.925 14.634 171.27 69.222 164.1 166.58 0 0 2.562 137.07-221.1 121.7z" fill-opacity="0" stroke="#000" stroke-width="14.424"/>
<path d="m242.79 162.53c0.993 2.292 2.532 5.016 4.05 7.461 1.554 2.496 3.249 4.935 5.043 7.314 3.594 4.752 7.59 9.246 11.904 13.446 8.625 8.409 18.486 15.654 29.106 21.654 21.276 12.063 45.429 19.026 69.981 22.284-24.711-1.566-49.563-6.825-72.348-17.73-11.373-5.427-22.182-12.246-31.917-20.508-4.869-4.125-9.462-8.616-13.698-13.476-2.112-2.436-4.14-4.959-6.051-7.602-1.926-2.703-3.672-5.256-5.391-8.541-1.317-2.514-0.345-5.619 2.172-6.936 2.514-1.317 5.619-0.342 6.936 2.172 0.057 0.111 0.108 0.219 0.156 0.33l0.057 0.132"/>
<path d="m245.61 170.51c-2.109 8.226-3.39 17.217-3.885 25.992-0.471 8.829-0.132 17.739 1.509 26.427 1.641 8.673 4.59 17.181 9.459 24.645 4.824 7.476 11.643 13.734 19.668 18.045-8.382-3.531-15.984-9.225-21.75-16.542-5.808-7.296-9.783-15.978-12.369-24.951-2.595-9-3.837-18.336-4.218-27.672-0.33-9.396 0.054-18.591 1.563-28.182 0.441-2.808 3.075-4.725 5.88-4.281 2.805 0.438 4.725 3.072 4.281 5.877-0.024 0.162-0.057 0.318-0.096 0.471l-0.042 0.171"/>
<path d="m241 175.77c-6.213 6.765-12.336 13.809-18.303 20.907-5.97 7.113-11.805 14.346-17.451 21.726-5.643 7.383-11.103 14.91-16.23 22.668-5.109 7.764-9.93 15.747-13.902 24.201 3.183-8.784 7.281-17.25 11.7-25.515 4.431-8.265 9.225-16.335 14.214-24.282 4.995-7.944 10.197-15.759 15.549-23.472 5.367-7.722 10.824-15.309 16.578-22.86 1.722-2.259 4.947-2.694 7.206-0.972s2.694 4.947 0.972 7.206c-0.096 0.123-0.195 0.243-0.297 0.354l-0.036 0.039"/>
<path d="m638.61 565.8s-221.35 9.222-209.06-136.81c0 0 1.035-96.186 139.23-143.33 0 0 47.898-20.058 52.776-42.822 0 0 28.242 27.705 74.046 34.692 95.925 14.634 171.27 69.222 164.1 166.58 0 0 2.562 137.07-221.1 121.7z"/>
<path d="m638.61 565.8s-221.35 9.222-209.06-136.81c0 0 1.035-96.186 139.23-143.33 0 0 47.898-20.058 52.776-42.822 0 0 28.242 27.705 74.046 34.692 95.925 14.634 171.27 69.222 164.1 166.58 0 0 2.562 137.07-221.1 121.7z" fill-opacity="0" stroke="#000" stroke-linecap="round" stroke-linejoin="round" stroke-width="24"/>
<path d="m622.12 245.68s27.576 60.54 124.75 70.008"/>
<path d="m633.02 240.65c0.012 0.171 0.303 0.885 0.522 1.404l0.783 1.746c0.567 1.185 1.185 2.388 1.848 3.588 1.311 2.4 2.787 4.785 4.365 7.122 3.162 4.677 6.762 9.177 10.704 13.425 7.881 8.511 17.109 16.038 27.228 22.422 20.262 12.837 43.956 20.94 68.397 25.329-24.816-0.435-50.136-4.554-73.932-14.682-11.88-5.046-23.316-11.58-33.795-19.743-5.241-4.08-10.23-8.565-14.895-13.5-2.328-2.472-4.578-5.052-6.729-7.791-1.074-1.371-2.124-2.781-3.153-4.251l-1.527-2.286c-0.525-0.84-0.957-1.497-1.608-2.727l-1.788-3.375c-3.234-6.114-0.9-13.698 5.217-16.932 6.117-3.237 13.698-0.903 16.932 5.214 0.846 1.593 1.311 3.348 1.431 5.037"/>
<path d="m624.59 250.4s-16.527 73.008 31.764 96.228"/>
<path d="m636.31 253.01c-0.594 1.563-1.221 3.753-1.758 5.724-0.549 2.028-1.056 4.089-1.509 6.171-0.912 4.158-1.644 8.382-2.169 12.63-1.041 8.493-1.302 17.115-0.3 25.599 1.005 8.469 3.273 16.86 7.509 24.438 4.2 7.581 10.494 14.22 18.279 19.05-8.622-3.006-16.749-8.325-23.142-15.54-6.438-7.182-11.097-15.981-14.319-25.155-3.228-9.207-5.076-18.831-6.027-28.5-0.471-4.842-0.705-9.702-0.729-14.586-0.012-2.445 0.036-4.893 0.141-7.362 0.126-2.526 0.24-4.821 0.603-7.704l0.069-0.561c0.834-6.642 6.888-11.349 13.53-10.515 6.639 0.831 11.343 6.888 10.512 13.527-0.117 0.954-0.369 1.923-0.69 2.784"/>
<path d="m621.08 253.46s-46.287 54.699-61.962 92.814"/>
<path d="m630.25 261.2c-6.516 6.234-13.086 12.918-19.452 19.599-6.381 6.711-12.639 13.554-18.723 20.559-6.078 7.005-11.985 14.169-17.574 21.588-5.577 7.428-10.878 15.09-15.378 23.322 2.655-9.009 6.273-17.793 10.224-26.394 3.966-8.604 8.316-17.04 12.87-25.359 4.563-8.322 9.339-16.524 14.277-24.642 4.968-8.139 9.978-16.089 15.429-24.165 3.726-5.526 11.229-6.984 16.755-3.255s6.981 11.232 3.255 16.758c-0.483 0.711-1.02 1.353-1.614 1.926l-0.069 0.063"/>
<path d="m638.61 565.8s-221.35 9.222-209.06-136.81c0 0 1.035-96.186 139.23-143.33 0 0 47.898-20.058 52.776-42.822 0 0 28.242 27.705 74.046 34.692 95.925 14.634 171.27 69.222 164.1 166.58 0 0 2.562 137.07-221.1 121.7z" fill="#FFFBD7"/>
<path d="m638.61 565.8s-221.35 9.222-209.06-136.81c0 0 1.035-96.186 139.23-143.33 0 0 47.898-20.058 52.776-42.822 0 0 28.242 27.705 74.046 34.692 95.925 14.634 171.27 69.222 164.1 166.58 0 0 2.562 137.07-221.1 121.7z" fill-opacity="0" stroke="#000" stroke-width="14.424"/>
<path d="m626.79 243.53c0.99 2.292 2.529 5.016 4.047 7.461 1.554 2.496 3.249 4.935 5.043 7.314 3.594 4.752 7.59 9.246 11.904 13.446 8.625 8.409 18.486 15.654 29.106 21.654 21.276 12.063 45.429 19.026 69.981 22.284-24.711-1.566-49.566-6.825-72.348-17.73-11.373-5.427-22.182-12.246-31.917-20.508-4.869-4.125-9.459-8.616-13.695-13.476-2.115-2.436-4.143-4.959-6.054-7.602-1.926-2.703-3.672-5.256-5.391-8.541-1.317-2.514-0.345-5.619 2.172-6.936s5.622-0.342 6.933 2.172c0.06 0.111 0.114 0.219 0.159 0.33l0.06 0.132"/>
<path d="m629.61 251.51c-2.109 8.226-3.393 17.217-3.885 25.992-0.474 8.829-0.132 17.739 1.509 26.427 1.638 8.673 4.59 17.181 9.462 24.645 4.821 7.476 11.64 13.734 19.665 18.045-8.382-3.531-15.987-9.225-21.75-16.542-5.808-7.296-9.783-15.978-12.372-24.951-2.589-9-3.834-18.336-4.215-27.672-0.33-9.396 0.054-18.591 1.56-28.182 0.447-2.808 3.078-4.725 5.883-4.281 2.808 0.438 4.725 3.072 4.281 5.877-0.027 0.162-0.054 0.318-0.096 0.471l-0.042 0.171"/>
<path d="m625 256.77c-6.21 6.765-12.333 13.809-18.3 20.907-5.97 7.113-11.805 14.346-17.451 21.726-5.643 7.383-11.1 14.91-16.227 22.668-5.112 7.764-9.933 15.747-13.905 24.201 3.183-8.784 7.284-17.25 11.7-25.515 4.431-8.265 9.225-16.335 14.217-24.282 4.992-7.944 10.194-15.759 15.543-23.472 5.37-7.722 10.827-15.309 16.584-22.86 1.719-2.259 4.944-2.694 7.2-0.972 2.262 1.722 2.697 4.947 0.972 7.206-0.093 0.123-0.192 0.243-0.294 0.354l-0.039 0.039"/>
<path d="m9 322.5 3 216s69 190.5 526.5 171c0 0 291-4.5 352.5-192l3-210s-27 244.5-397.5 228c0 0-333 31.5-487.5-213z" fill="#DBAE6C"/>
<path d="m9 322.5 3 216s69 190.5 526.5 171c0 0 291-4.5 352.5-192l3-210s-27 244.5-397.5 228c0 0-333 31.5-487.5-213z" fill-opacity="0" stroke="#000" stroke-linecap="round" stroke-linejoin="round" stroke-width="14.424"/>
<path d="m22.5 385.5c5.523 8.778 12.036 16.869 18.819 24.669 6.78 7.809 13.968 15.255 21.471 22.359 15.003 14.214 31.251 27.057 48.315 38.634 34.026 23.352 71.379 41.601 110.22 55.302 38.889 13.614 79.146 23.238 119.96 28.962 40.8 5.898 82.095 8.253 123.35 7.857 0.138 0 0.276 6e-3 0.414 0.018l0.075 6e-3c19.638 1.761 39.726 2.22 59.631 2.007 19.944-0.228 39.876-1.374 59.73-3.225 39.699-3.762 79.098-11.124 117.08-23.154 37.878-12.111 74.373-29.544 105.71-54.21 15.705-12.228 30.039-26.289 42.375-42 12.312-15.723 22.68-33.015 30.846-51.348-14.448 37.521-39.417 70.872-70.557 96.657-31.272 25.788-68.082 44.178-106.27 57.252-38.28 13.152-78.234 20.751-118.36 25.035-20.079 2.142-40.254 3.225-60.435 3.567-20.217 0.276-40.308-0.093-60.651-1.848l0.486 0.021c-41.649 0.33-83.388-2.196-124.65-8.355-41.202-6.333-82.017-16.086-121.08-30.837-39.048-14.652-76.494-33.843-110.38-58.143-16.86-12.249-32.823-25.731-47.463-40.518-14.568-14.805-28.173-30.771-38.643-48.708" fill="#9E754E"/>
<path d="m22.5 423.7c5.568 8.712 12.132 16.722 18.96 24.438 6.831 7.725 14.058 15.084 21.603 22.095 15.09 14.028 31.404 26.682 48.519 38.073 34.131 22.971 71.511 40.854 110.32 54.264 38.859 13.323 79.029 22.734 119.74 28.32 40.695 5.751 81.864 8.055 123 7.656 0.138-3e-3 0.276 3e-3 0.414 0.015l0.075 6e-3c19.638 1.764 39.726 2.223 59.631 2.01 19.944-0.228 39.876-1.374 59.73-3.225 39.699-3.765 79.095-11.127 117.08-23.157 37.875-12.111 74.37-29.541 105.71-54.21 15.708-12.228 30.042-26.286 42.375-42 12.315-15.72 22.68-33.012 30.849-51.345-14.445 37.521-39.417 70.875-70.554 96.657-31.275 25.788-68.085 44.181-106.28 57.255-38.28 13.155-78.234 20.748-118.36 25.035-20.079 2.136-40.251 3.222-60.435 3.567-20.217 0.276-40.308-0.096-60.651-1.851l0.486 0.021c-41.52 0.324-83.121-2.136-124.27-8.157-41.088-6.189-81.81-15.729-120.84-30.183-39.015-14.358-76.494-33.177-110.49-57.099-16.917-12.06-32.952-25.353-47.682-39.957-14.658-14.628-28.368-30.42-38.937-48.228" fill="#9E754E"/>
<path d="m22.5 467.77c5.664 8.571 12.327 16.416 19.251 23.964 6.924 7.551 14.244 14.733 21.87 21.558 15.264 13.647 31.701 25.929 48.924 36.927 34.335 22.203 71.763 39.363 110.5 52.209 38.793 12.75 78.801 21.714 119.3 27.048 40.485 5.469 81.402 7.668 122.29 7.257 0.138 0 0.276 6e-3 0.411 0.015l0.078 9e-3c19.638 1.761 39.726 2.22 59.631 2.01 19.944-0.231 39.876-1.371 59.73-3.231 39.699-3.759 79.092-11.13 117.08-23.157 37.875-12.111 74.373-29.535 105.71-54.207 15.705-12.228 30.042-26.283 42.375-41.997 12.315-15.72 22.683-33.012 30.852-51.345-14.445 37.524-39.414 70.878-70.551 96.663-31.275 25.788-68.082 44.184-106.28 57.258-38.28 13.155-78.237 20.742-118.36 25.032-20.079 2.13-40.251 3.222-60.435 3.564-20.217 0.276-40.308-0.096-60.651-1.851l0.486 0.024c-41.259 0.309-82.593-2.022-123.51-7.773-40.863-5.925-81.396-15.021-120.36-28.89-38.943-13.785-76.476-31.866-110.69-55.026-17.031-11.667-33.204-24.588-48.12-38.82-14.835-14.262-28.758-29.706-39.531-47.241" fill="#9E754E"/>
<path d="m23.964 508.91c5.829 8.262 12.675 15.732 19.767 22.89 7.095 7.161 14.577 13.932 22.35 20.337 15.549 12.81 32.226 24.195 49.59 34.338 34.647 20.469 72.042 36.015 110.52 47.583 38.523 11.481 78.063 19.461 118 24.21 39.924 4.857 80.202 6.804 120.45 6.378 0.138-3e-3 0.276 3e-3 0.411 0.015l0.078 6e-3c19.638 1.764 39.726 2.223 59.631 2.013 19.944-0.237 39.876-1.362 59.73-3.24 39.699-3.747 79.089-11.142 117.07-23.163 37.875-12.108 74.376-29.523 105.7-54.201 15.708-12.222 30.048-26.277 42.381-41.988 12.315-15.717 22.683-33.009 30.858-51.339-14.439 37.527-39.408 70.881-70.542 96.675-31.281 25.779-68.085 44.187-106.28 57.264-38.28 13.161-78.243 20.727-118.36 25.029-20.079 2.109-40.251 3.216-60.435 3.555-20.217 0.276-40.308-0.096-60.654-1.851l0.489 0.021c-40.587 0.267-81.246-1.74-121.56-6.915-40.272-5.31-80.286-13.446-118.97-26.022-38.673-12.486-76.194-28.911-110.74-50.349-17.199-10.815-33.639-22.845-48.873-36.249-15.144-13.434-29.469-28.074-40.605-44.997" fill="#9E754E"/>
</svg>
