<?xml version="1.0" encoding="UTF-8"?>
<svg width="491.03" height="474.47" version="1.0" viewBox="0 0 460.34 444.82" xmlns="http://www.w3.org/2000/svg">
<defs>
<linearGradient id="a" x1="171.37" x2="181.28" y1="343.67" y2="378.15" gradientTransform="rotate(-7.5239 347.17 525.72)" gradientUnits="userSpaceOnUse">
<stop stop-color="#c8c800" offset="0"/>
<stop stop-color="#ffff49" offset="1"/>
</linearGradient>
</defs>
<g transform="translate(-117.8,-304.41)">
<path d="m133.07 372.04c50.97-19.83 134.54-30.12 134.54-30.12l238.09-31.44 25.6 193.78s13.67 113.15 46.85 167.19c-77.62 32.18-215.04 52.19-215.04 52.19l-193.78 25.59-43.78-331.48s-6.98-26.45 7.52-45.71z" fill-opacity=".39216"/>
<path d="m125.64 364.97c58.48-16.83 137.04-27.11 137.04-27.11l238.1-31.45 25.59 193.78s8.77 76 41.94 130.03c-63.19 76.14-210.13 89.35-210.13 89.35l-193.78 25.6-43.78-331.49s-3.8-31.87 5.02-48.71z" fill="url(#a)" stroke="#000" stroke-width="4"/>
<g transform="matrix(1.0272 -.15203 .16453 .94915 0 0)" stroke-width="1.0627" aria-label="Shopping list">
<path d="m104.68 430.63c-4.6825-11.883-23.751 7.7201-4.3937 7.0855 25.51 8.2592-22.94 26.205-13.186 11.449 9.7084 4.7648 22.432-7.81 6.3253-8.8783-23.4-6.8143 16.015-29.947 14.259-10.57l-1.2518 0.68494z"/>
<path d="m116.82 443.37c3.8739-14.389 19.428-12.833 17.02 2.9888 3.9782 12.646-9.6675-1.2718-6.7093-8.3127-6.4684 1.9675-17.162 27.213-14.982 6.9568 1.2981-6.0786 2.9509-35.825 8.5374-20.531-0.8214 6.386-2.7305 12.57-3.8658 18.898z"/>
<path d="m158.29 442.42c-3.4027 18.982-30.563 9.1552-16.459-6.8079 5.5739-9.6516 19.792-4.5554 16.459 6.8079zm-10.793-6.5588c-9.2095 6.4638-1.0799 21.974 5.5107 7.4513 2.2145-3.703-0.4288-11.486-5.5107-7.4513z"/>
<path d="m167.49 451.47c1.7573 8.4541-8.3786 25.175-5.788 6.8608 2.3084-5.8137 1.6698-38.904 7.9206-23.616-3.8451 10.662 14.843-16.421 16.444 1.0015 0.62308 7.8351-10.779 22.468-18.576 15.754zm12.184-16.874c-12.479 2.4326-11.648 23.899-0.68105 8.3827 1.271-2.1818 3.4379-6.6554 0.68105-8.3827z"/>
<path d="m194.89 451.47c1.7573 8.4541-8.3786 25.175-5.788 6.8608 2.3084-5.8137 1.6698-38.904 7.9206-23.616-3.8451 10.662 14.843-16.421 16.444 1.0015 0.62309 7.8351-10.779 22.468-18.576 15.754zm12.184-16.874c-12.479 2.4326-11.648 23.899-0.68105 8.3827 1.271-2.1818 3.4379-6.6554 0.68105-8.3827z"/>
<path d="m228.97 422.1c-7.4198 12.927-9.5081-10.859 0 0zm-10.025 17.061c3.0098-16.794 8.0388 0.46098 3.7153 8.759-0.67225 16.511-8.4408-2.0807-3.7153-8.759z"/>
<path d="m247.11 449.91c0.15308-13.144-6.7225-14.643-11.623-1.9458-11.539 19.334-3.0336-32.552-0.12973-9.6048-4.2823 11.605 9.5352-16.786 14.14-1.5398-2.0534 7.7941 14.595 18.329-2.3869 13.09z"/>
<path d="m272.04 446.59c-9.4106 14.083-22.317-0.71608-9.9316-9.7448 8.5952-11.279 22.555-4.4603 14.482 8.65 6.5848 17.036-21.759 28.834-22.193 11.826 11.081 8.9929 17.702 1.7212 17.642-10.731zm0.49814-11.54c-9.9332 0.56886-15.096 21.774-2.2676 8.5358 1.0061-1.8502 5.7718-6.8272 2.2676-8.5358z"/>
<path d="m306.76 417.8c3.9018 9.3004-4.0783 24.494-2.2624 35.887-10.223 0.95739-2.2569-31.552 2.2624-35.887z"/>
<path d="m322.78 422.1c-7.4198 12.927-9.5081-10.859 0 0zm-10.025 17.061c3.0098-16.794 8.0389 0.46098 3.7153 8.759-0.67225 16.511-8.4408-2.0807-3.7153-8.759z"/>
<path d="m333.27 447.67c-16.825-2.5035-8.1633-24.053 4.8867-16.964-1.6608 4.6303-18.458 6.194-2.946 12.086 14.119 12.785-26.696 12.599-8.8523 7.0362 2.4344-0.065 4.9757-0.51893 6.9117-2.1586z"/>
<path d="m349.89 436.09c-5.2934 10.695-0.64913 14.905 7.5966 11.312-11.114 17.759-17.12-5.3593-14.986-10.855-8.4921-5.2771 10.439-3.1453 6.2838-13.004 8.4704-1.4031-2.2366 12.849 9.5944 7.441 6.9292 3.4774-6.529 4.6932-8.4891 5.1059z"/>
</g>
<g transform="rotate(-9.1)" aria-label="milk 1 dozen eggs fish to cook cheddar cheese some kind of soup?">
<path d="m88.34 505.92c-11.654 6.5242 1.588-35.591 0.09155-10.071-4.0373 8.185 13.55-19.932 12.671-0.31128-0.64465 12.272 8.8871-18.634 13.431-3.2593 2.3903 5.9986 4.1851 21.405-3.2089 9.8602 0.68262-24.049-9.4628 16.015-14.107-1.2165 1.2561-17.613-6.3357 0.88659-8.8772 4.9976z" stroke-width=".9375"/>
<path d="m131.15 479.79c-5.8673 12.386-9.1993-10.898 0 0zm-8.844 15.051c5.6021-23.36 6.7976 23.815-1.2085 9.4482-0.0195-3.1974 0.66611-6.3188 1.2085-9.4482z" stroke-width=".9375"/>
<path d="m138.47 476c2.0861 7.9265-0.85843 24.524-3.7536 32.446-5.2686-6.5069-1.2007-26.215 3.7536-32.446z" stroke-width=".9375"/>
<path d="m159.46 491.71c-19.363 4.5105 14.846 16.789-4.01 15.161-6.5803-9.5186-7.9083-6.5144-11.096 1.2268-2.3541-6.3589-2.403-28.362 5.4016-30.927 1.6995 5.8121-6.9957 26.257 3.3325 14.337 1.6446-3.6484 12.806-6.7768 6.3721 0.20143z" stroke-width=".9375"/>
<path d="m97.972 553.51c-3.8843 5.0855-24.025 0.22036-4.9438-2.5818 0.28453-8.3319 5.6998-18.695-6.0059-11.462-3.2812-4.8074 20.419-14.65 11.449 0.12817-3.1908 9.0832-0.50636 12.169 8.2718 8.8806 3.1593 5.2355-6.6733 3.4273-8.7708 5.0354z" stroke-width=".9375"/>
<path d="m138.79 549.83c-8.7219 16.33-21.077-2.52-7.996-10.27 9.3249-2.2884 10.627-3.7495 12.903-14.065 7.0346 4.0635-7.0795 26.181 3.3325 28.345-3.5511 4.8931-9.5854 1.7866-8.2398-4.01zm-2.0325-9.3933c-13.11 5.0384-5.0634 19.443 1.3504 4.6097 1.4175-1.2971 1.0336-4.7466-1.3504-4.6097z" stroke-width=".9375"/>
<path d="m167.9 546.66c-6.0522 21.059-28.906 1.4871-10.954-9.4391 6.4705-4.0288 13.115 2.6893 10.954 9.4391zm-9.5215-5.7861c-10.398 8.8311 3.9212 18.198 5.4748 3.3874 0.69195-3.117-2.998-5.9174-5.4748-3.3874z" stroke-width=".9375"/>
<path d="m184.47 550.78c12.615 5.2925-13.629 5.8998-16.754 5.1086 5.2779-7.0345 23.238-18.257 4.4907-15.308-2.163-7.8052 26.248-4.2564 10.068 5.0737-6.3338 7.9832-9.795 6.6815 2.1956 5.1253z" stroke-width=".9375"/>
<path d="m206.9 549.64c-8.017 17.935-26.296-2.2061-11.615-11.759 17.329-8.5211 5.7573 12.44-0.23232 14.267 4.4149 4.7994 9.4501-6.5139 11.847-2.5085zm-12.286-3.241c12.869-2.9124 5.4016-14.675 0 0z" stroke-width=".9375"/>
<path d="m225.3 553.27c0.52116-16.954-9.2807-7.2111-12.25 2.3987-9.762 0.18401 2.8463-31.357 1.5552-10.7-2.6489 2.4929 13.229-15.986 13.386-0.32272-0.44123 4.7166 11.229 14.073-2.6916 8.6243z" stroke-width=".9375"/>
<path d="m266.15 549.64c-8.017 17.935-26.296-2.2061-11.615-11.759 17.329-8.5211 5.7573 12.44-0.23232 14.267 4.4149 4.7994 9.4501-6.5139 11.847-2.5085zm-12.286-3.241c12.869-2.9124 5.4016-14.675 0 0z" stroke-width=".9375"/>
<path d="m281.72 550.34c-15.371 16.216-16.714-10.816-1.7303-13.326 14.694-2.2513 4.9731 24.68-1.5015 29.874-8.6962 5.6364-20.168-13.229-6.2942-3.9596 8.0649 3.6956 8.7915-7.708 9.5261-12.588zm0.43946-10.181c-8.763 0.50184-13.317 19.209-2.0004 7.5302 1.0479-1.7205 5.1577-6.1252 2.0004-7.5302z" stroke-width=".9375"/>
<path d="m303.18 550.34c-15.371 16.216-16.714-10.816-1.7303-13.326 14.694-2.2513 4.9731 24.68-1.5015 29.874-8.6962 5.6364-20.168-13.229-6.2942-3.9596 8.0649 3.6956 8.7915-7.708 9.5261-12.588zm0.43946-10.181c-8.763 0.50184-13.317 19.209-2.0004 7.5302 1.0479-1.7205 5.1577-6.1252 2.0004-7.5302z" stroke-width=".9375"/>
<path d="m320.72 551.29c-16.016-1.8918-4.7789-23.321 4.5044-13.788-6.9251 2.2877-13.101 6.2657-1.2451 10.767 4.4596 15.045-26.537 5.0129-5.7495 4.3762z" stroke-width=".9375"/>
<path d="m88.523 595.57c2.0742 8.2435-5.7227 16.694-4.7207 3.6644-1.676-8.2771 4.535-34.568 14.901-21.975-2.6523 13.639-6.303-10.612-8.7799 6.5735-2.1153 5.3755 15.275 3.2843 1.0712 6.7017-3.4969-1.0394-1.5765 3.5228-2.4719 5.0354z" stroke-width=".9375"/>
<path d="m107.57 577.68c-5.8672 12.386-9.1993-10.898 0 0zm-8.844 15.051c5.6021-23.36 6.7976 23.815-1.2085 9.4482-0.0195-3.1974 0.66612-6.3188 1.2085-9.4482z" stroke-width=".9375"/>
<path d="m116.81 600.23c-16.016-1.8919-4.7789-23.32 4.5044-13.788-6.9251 2.2877-13.101 6.2657-1.2451 10.767 4.4596 15.045-26.537 5.0128-5.7495 4.3762z" stroke-width=".9375"/>
<path d="m128.17 596.44c3.6024-12.87 17.116-11.617 15.015 2.6367 2.6702 11.828-7.4687-2.5837-6.5918-7.5989-5.6173 6.3088-16.162 23.006-12.109 3.8853-0.80872-6.8005 6.2024-30.969 6.7257-13.077-0.87854 4.7469-2.162 9.4075-3.0396 14.154z" stroke-width=".9375"/>
<path d="m169.93 590.02c-4.6697 9.4354-0.57265 13.149 6.7017 9.9792-9.8608 15.638-14.975-4.6626-13.22-9.5764-7.4548-4.564 8.9528-3.0418 5.5435-11.472 6.8764-0.0161-1.119 10.638 9.7458 6.8573 1.418 4.3194-6.3754 3.1682-8.7708 4.2114z" stroke-width=".9375"/>
<path d="m197.27 595.6c-6.0522 21.059-28.906 1.4872-10.954-9.4391 6.4706-4.0288 13.115 2.6893 10.954 9.4391zm-9.5215-5.7861c-10.398 8.8311 3.9212 18.198 5.4748 3.3874 0.69195-3.117-2.998-5.9174-5.4748-3.3874z" stroke-width=".9375"/>
<path d="m221.55 605.89c-21.522-6.4137 16.47-32.388 5.8273-13.87-4.3057-11.928-13.802 19.932 0.94757 7.9376 9.1376-3.5619-3.6618 8.4193-6.7749 5.9326z" stroke-width=".9375"/>
<path d="m252.42 595.6c-6.0522 21.059-28.906 1.4872-10.954-9.4391 6.4706-4.0288 13.115 2.6893 10.954 9.4391zm-9.5215-5.7861c-10.398 8.8311 3.9212 18.198 5.4749 3.3874 0.69193-3.117-2.998-5.9174-5.4749-3.3874z" stroke-width=".9375"/>
<path d="m273.59 595.6c-6.0522 21.059-28.906 1.4872-10.954-9.4391 6.4706-4.0288 13.115 2.6893 10.954 9.4391zm-9.5215-5.7861c-10.398 8.8311 3.9212 18.198 5.4748 3.3874 0.69193-3.117-2.998-5.9174-5.4748-3.3874z" stroke-width=".9375"/>
<path d="m294.44 589.6c-19.363 4.5105 14.846 16.789-4.01 15.161-6.5803-9.5186-7.9082-6.5144-11.096 1.2268-2.3541-6.3589-2.403-28.362 5.4016-30.927 1.6995 5.8121-6.9957 26.257 3.3325 14.337 1.6446-3.6484 12.806-6.7768 6.3721 0.20145z" stroke-width=".9375"/>
<path d="m88.908 654.84c-21.522-6.4137 16.47-32.388 5.8273-13.87-4.3057-11.928-13.802 19.932 0.94757 7.9376 9.1376-3.5619-3.6618 8.4193-6.7749 5.9326z" stroke-width=".9375"/>
<path d="m106.63 645.39c3.6024-12.87 17.116-11.617 15.015 2.6367 2.6702 11.828-7.4687-2.5838-6.5918-7.5989-5.6173 6.3088-16.162 23.006-12.109 3.8853-0.80873-6.8005 6.2024-30.969 6.7257-13.077-0.87852 4.7469-2.162 9.4075-3.0396 14.154z" stroke-width=".9375"/>
<path d="m142.3 647.53c-8.017 17.935-26.296-2.2061-11.615-11.759 17.329-8.5211 5.7573 12.44-0.23232 14.267 4.4149 4.7994 9.4501-6.5139 11.847-2.5085zm-12.286-3.241c12.869-2.9124 5.4016-14.675 0 0z" stroke-width=".9375"/>
<path d="m158.27 647.71c-8.7219 16.33-21.077-2.52-7.996-10.27 9.3249-2.2884 10.627-3.7495 12.903-14.065 7.0346 4.0635-7.0795 26.181 3.3325 28.345-3.5511 4.8931-9.5854 1.7866-8.2398-4.01zm-2.0325-9.3933c-13.11 5.0384-5.0634 19.443 1.3504 4.6097 1.4175-1.2971 1.0336-4.7466-1.3504-4.6097z" stroke-width=".9375"/>
<path d="m183.02 647.71c-8.7219 16.33-21.077-2.52-7.996-10.27 9.3249-2.2884 10.627-3.7495 12.903-14.065 7.0346 4.0635-7.0795 26.181 3.3325 28.345-3.5511 4.8931-9.5854 1.7866-8.2398-4.01zm-2.0325-9.3933c-13.11 5.0384-5.0634 19.443 1.3504 4.6097 1.4175-1.2971 1.0336-4.7466-1.3504-4.6097z" stroke-width=".9375"/>
<path d="m207.38 647.69c-9.8085 16.023-19.758-3.6627-6.8436-10.991 13.085-11.427 13.608 14.192 9.938 17.894-3.3731-0.10766-3.1159-4.6568-3.0945-6.9031zm-1.0986-10.162c-9.1701 2.6888-9.2969 20.407-0.44518 6.8539 1.1075-1.7592 3.2529-5.6756 0.44518-6.8539z" stroke-width=".9375"/>
<path d="m221.38 644.75c-0.33207-7.915 17.235-15.264 12.781-4.9805-10.127-5.7826-15.576 30.135-16.626 5.3467-1.8914-11.917 9.4345-16.018 3.8452-0.36621z" stroke-width=".9375"/>
<path d="m256.27 654.84c-21.522-6.4137 16.47-32.388 5.8273-13.87-4.3057-11.928-13.802 19.932 0.94756 7.9376 9.1376-3.5619-3.6618 8.4193-6.7749 5.9326z" stroke-width=".9375"/>
<path d="m273.99 645.39c3.6024-12.87 17.116-11.617 15.015 2.6367 2.6702 11.828-7.4687-2.5838-6.5918-7.5989-5.6172 6.3088-16.162 23.006-12.109 3.8853-0.80872-6.8005 6.2024-30.969 6.7257-13.077-0.87852 4.7469-2.162 9.4075-3.0396 14.154z" stroke-width=".9375"/>
<path d="m309.66 647.53c-8.017 17.935-26.296-2.2061-11.615-11.759 17.329-8.5211 5.7573 12.44-0.23231 14.267 4.4149 4.7994 9.4501-6.5139 11.847-2.5085zm-12.286-3.241c12.869-2.9124 5.4016-14.675 0 0z" stroke-width=".9375"/>
<path d="m329.07 647.53c-8.017 17.935-26.296-2.2061-11.615-11.759 17.329-8.5211 5.7573 12.44-0.23231 14.267 4.4149 4.7994 9.4501-6.5139 11.847-2.5085zm-12.286-3.241c12.869-2.9124 5.4016-14.675 0 0z" stroke-width=".9375"/>
<path d="m340.71 649.18c-16.016-1.8919-4.7789-23.321 4.5044-13.788-6.9251 2.2877-13.101 6.2657-1.2451 10.767 4.4596 15.045-26.537 5.0128-5.7495 4.3762z" stroke-width=".9375"/>
<path d="m364.3 647.53c-8.017 17.935-26.296-2.2061-11.615-11.759 17.329-8.5211 5.7573 12.44-0.23232 14.267 4.4149 4.7994 9.4501-6.5139 11.847-2.5085zm-12.286-3.241c12.869-2.9124 5.4016-14.675 0 0z" stroke-width=".9375"/>
<path d="m92.131 698.12c-16.016-1.8919-4.7789-23.321 4.5044-13.788-6.9251 2.2877-13.101 6.2657-1.2451 10.767 4.4596 15.045-26.537 5.0128-5.7495 4.3762z" stroke-width=".9375"/>
<path d="m116.63 693.49c-6.0522 21.059-28.906 1.4872-10.954-9.4391 6.4705-4.0288 13.115 2.6893 10.954 9.4391zm-9.5215-5.7861c-10.398 8.8311 3.9212 18.198 5.4748 3.3875 0.69195-3.117-2.998-5.9174-5.4748-3.3875z" stroke-width=".9375"/>
<path d="m125.33 701.69c-11.654 6.5242 1.588-35.591 0.0915-10.071-4.0372 8.185 13.55-19.932 12.671-0.31128-0.64463 12.272 8.8871-18.634 13.431-3.2593 2.3903 5.9986 4.1851 21.405-3.2089 9.8602 0.68262-24.049-9.4628 16.015-14.107-1.2165 1.2561-17.613-6.3357 0.88656-8.8772 4.9976z" stroke-width=".9375"/>
<path d="m174.38 696.47c-8.017 17.935-26.296-2.2061-11.615-11.759 17.329-8.5211 5.7573 12.44-0.23231 14.267 4.4149 4.7994 9.4501-6.5139 11.847-2.5085zm-12.286-3.241c12.869-2.9124 5.4016-14.675 0 0z" stroke-width=".9375"/>
<path d="m209.41 687.48c-19.363 4.5105 14.846 16.789-4.01 15.161-6.5803-9.5186-7.9082-6.5144-11.096 1.2268-2.3541-6.3589-2.403-28.362 5.4016-30.927 1.6995 5.8121-6.9957 26.257 3.3325 14.337 1.6446-3.6484 12.806-6.7768 6.3721 0.20144z" stroke-width=".9375"/>
<path d="m224.68 675.56c-5.8673 12.386-9.1993-10.898 0 0zm-8.844 15.051c5.6021-23.36 6.7976 23.815-1.2085 9.4482-0.0195-3.1974 0.6661-6.3188 1.2085-9.4482z" stroke-width=".9375"/>
<path d="m240.68 700.1c0.52116-16.954-9.2807-7.2111-12.25 2.3987-9.762 0.18401 2.8463-31.357 1.5552-10.7-2.6489 2.4929 13.229-15.986 13.386-0.32272-0.44123 4.7166 11.229 14.073-2.6916 8.6243z" stroke-width=".9375"/>
<path d="m263.08 696.66c-8.7219 16.33-21.077-2.52-7.996-10.27 9.3249-2.2884 10.627-3.7495 12.903-14.065 7.0346 4.0635-7.0795 26.181 3.3325 28.345-3.551 4.8931-9.5854 1.7866-8.2397-4.01zm-2.0325-9.3933c-13.11 5.0385-5.0634 19.443 1.3504 4.6097 1.4175-1.2971 1.0336-4.7466-1.3504-4.6097z" stroke-width=".9375"/>
<path d="m307.21 693.49c-6.0522 21.059-28.906 1.4872-10.954-9.4391 6.4705-4.0288 13.115 2.6893 10.954 9.4391zm-9.5215-5.7861c-10.398 8.8311 3.9212 18.198 5.4748 3.3875 0.69195-3.117-2.998-5.9174-5.4748-3.3875z" stroke-width=".9375"/>
<path d="m316.09 693.45c2.0742 8.2435-5.7227 16.694-4.7207 3.6644-1.676-8.2772 4.535-34.568 14.901-21.975-2.6523 13.639-6.303-10.612-8.7799 6.5735-2.1153 5.3755 15.275 3.2843 1.0712 6.7017-3.4969-1.0395-1.5765 3.5228-2.4719 5.0354z" stroke-width=".9375"/>
<path d="m348.62 698.12c-16.016-1.8919-4.7789-23.321 4.5044-13.788-6.9251 2.2877-13.101 6.2657-1.2451 10.767 4.4596 15.045-26.537 5.0128-5.7495 4.3762z" stroke-width=".9375"/>
<path d="m373.12 693.49c-6.0522 21.059-28.906 1.4872-10.954-9.4391 6.4705-4.0288 13.115 2.6893 10.954 9.4391zm-9.5215-5.7861c-10.398 8.8311 3.9212 18.198 5.4748 3.3875 0.69195-3.117-2.998-5.9174-5.4748-3.3875z" stroke-width=".9375"/>
<path d="m389.88 696.07c-10.11 20.75-19.792-11.285-7.0312-11.975-1.2073 6.5708-3.9581 22.882 5.516 8.7708 1.4681-12.095 9.8539-7.6562 5.0858 2.4353 5.6876 9.2685-4.5556 11.705-3.5706 0.76904z" stroke-width=".9375"/>
<path d="m404.76 686.07c1.8988 6.4968-7.0639 18.926-4.9528 5.0953 2.2811-4.668 0.18191-29.014 6.4976-17.775-3.384 8.5416 12.81-12.263 14.474 1.0841 0.70196 5.9614-9.0325 16.847-16.019 11.596zm10.378-12.573c-10.305 1.2184-10.671 18.47-0.43365 6.3515 1.0744-1.6316 2.891-4.9857 0.43365-6.3515z" stroke-width=".86794"/>
<path d="m437.15 673.55c-1.1876 6.8819-10.298 11.937-14.465 13.367-2.4169-6.4773 20.248-14.615 4.596-15.948-16.634 7.8864 10.564-16.268 9.8694 2.5818zm-10.693 18.988c-8.3123 9.982-7.6758-8.1989 0 0z" stroke-width=".9375"/>
</g>
</g>
</svg>
