<?xml version="1.0" encoding="UTF-8"?>
<svg version="1.1" viewBox="0 0 1066.7 1066.7" xml:space="preserve" xmlns="http://www.w3.org/2000/svg"><defs><clipPath id="a"><path d="m0 800h800v-800h-800z"/></clipPath></defs><g transform="matrix(1.3333 0 0 -1.3333 0 1066.7)"><g clip-path="url(#a)" fill-rule="evenodd"><path d="m300.27 429.13c-59.654 0-108.01-32.009-108.01-71.495 0-39.485 48.357-71.494 108.01-71.494 59.656 0 108.01 32.009 108.01 71.494 0 39.486-48.356 71.495-108.01 71.495m0 86.732c122.02 0 220.94-77.662 220.94-173.46 0-95.8-98.917-173.46-220.94-173.46-122.02 0-220.93 77.664-220.93 173.46 1e-3 95.802 98.917 173.46 220.93 173.46" fill="#e6e6e6"/><path d="m527.84 481.21c-58.933 11.4-111.67-10.801-117.8-49.587-6.123-38.784 36.682-79.466 95.615-90.866 58.931-11.399 111.67 10.801 117.79 49.586 6.125 38.786-36.682 79.467-95.613 90.867m13.453 85.192c120.54-23.316 206.21-118.5 191.35-212.6-14.862-94.102-124.62-151.48-245.17-128.17-120.54 23.318-206.21 118.5-191.35 212.6 14.86 94.1 124.62 151.48 245.17 128.16" fill="#e6e6e6"/><path d="m287.17 446.63c-59.653 0-108.01-32.009-108.01-71.496s48.356-71.496 108.01-71.496c59.656 0 108.01 32.009 108.01 71.496s-48.357 71.496-108.01 71.496m0 86.731c122.02 0 220.93-77.661 220.93-173.46 0-95.8-98.915-173.46-220.93-173.46-122.02 0-220.93 77.662-220.93 173.46 0 95.803 98.917 173.46 220.93 173.46" fill="#fcb874"/><path d="m287.17 446.63c-59.653 0-108.01-32.009-108.01-71.496s48.356-71.496 108.01-71.496c59.656 0 108.01 32.009 108.01 71.496s-48.357 71.496-108.01 71.496m0 86.731c51.057 0 98.057-13.603 135.47-36.436 1.468-2.713 3.965-5.082 8.416-7.037 15.306-6.724-7.03-33.382 13.529-45.148 88.281-50.53-3.045-46.583 14.834-61.464 28.635-23.839 32.748-45.929-1.326-46.107-26.823-0.145-26.539-6.625-12.812-21.006 29.029-30.41-15.978-28.967-31.255-21.457-23.235 11.422-17.143-5.566-17.143-31.019-1e-3 -21.905-28.039 10.486-49.777 1.785-24.259-9.709 12.578-19.543 11.183-31.16-2.803-23.358-40.617 11.574-46.151 14.181-16.747 7.895-18.251-5.035-23.203-19.996-5.493-16.592-24.174-2.853-24.334 6.154-1.287 72.961-31.287-37.504-43.788 15.461-12.432 52.688-23.604-23.314-37.374 14.086-15.357 41.713-29.712 14.971-44.939 17.746-4.849 0.885-5.207 35.616-16.123 31.727-12.983-4.625-16.721-10.941-25.975-1.221-8.052 8.459 14.806 26.295 2.843 28.274-38.901 6.437 0.412 22.918-4.672 30.908-6.734 10.582-18.584 12.414-10.982 23.48 10.56 15.375 18.876 18.805 22.832 22.224 8.88 7.679-1.236 18.728 1.711 26.689 5.708 15.411 21.305 13.63 17.955 19.278-3.371 5.691-3.649 9.59-2.468 13.218 40.415 34.918 98.722 56.84 163.55 56.84" fill="#c30"/><path d="m158.5 336.73c-7.331 9.92-12.728 21.305-15.475 34.227-1.166 5.48-1.753 11.068-1.753 16.674 0 5.601 0.587 11.189 1.753 16.67 13.021 61.277 85.674 87.989 141.47 87.989 55.799 0 128.45-26.712 141.47-87.989 1.166-5.481 1.755-11.069 1.755-16.67 0-3.272-0.203-6.535-0.599-9.776-0.248-2.003 0.524-3.845 2.127-5.076 1.6-1.23 3.581-1.502 5.454-0.746 1.011 0.406 2.043 0.779 3.092 1.121 1.717 0.563 2.955 1.787 3.535 3.5 0.578 1.713 0.336 3.438-0.691 4.924-4.576 6.637-6.776 14.596-5.574 23.074 0.706 4.988 2.194 9.057 4.266 12.474 4.088 6.74 1.978 15.553-4.718 19.711-10.261 6.37-17.623 15.783-20.898 27.553-1.73 6.223-2.144 12.456-1.803 18.801 0.218 4.025-1.059 7.57-3.788 10.536-0.122 0.132-0.242 0.266-0.362 0.398-37.141 21.391-80.587 31.473-123.27 31.473-46.582 0-95.019-12.205-134.21-38.192-3.793-2.515-6.012-6.26-6.395-10.794-0.16-1.887-0.494-3.776-1.009-5.637-1.921-6.95-5.76-12.234-10.912-16.339-3.718-2.963-5.622-7.137-5.417-11.887 0.524-12.235-3.362-23.487-13.9-32.597-0.034-0.029-0.068-0.062-0.101-0.088-4.71-4.058-6.276-10.342-4.025-16.13 0.683-1.764 1.213-3.588 1.58-5.454 0.789-4.017 0.829-7.724 0.287-11.201-0.602-3.871 0.239-7.412 2.517-10.597 1.042-1.457 1.972-3.022 2.777-4.688 0.638-1.316 1.172-2.615 1.612-3.891 1.387-4.033 4.14-6.966 8.073-8.609 9.876-4.121 15.883-11.986 19.859-21.176 1.131-2.617 3.657-4.17 6.505-4.002 0.282 0.018 0.565 0.034 0.845 0.043 2.942 0.125 5.404 1.752 6.675 4.409 1.27 2.658 0.99 5.593-0.761 7.962" fill="#e8592a"/><path d="m287.17 446.63c54.81 0 100.08-27.023 107.07-62.039 0.939 3.787 1.433 7.676 1.433 11.64 0 39.486-48.357 71.496-108.01 71.496-59.653 0-108.01-32.01-108.01-71.496 0-3.205 0.324-6.363 0.942-9.457 8.4 33.949 52.914 59.856 106.58 59.856m220.73-79.463c0.127-2.41 0.208-4.834 0.208-7.27 0-95.8-98.915-173.46-220.93-173.46-122.02 0-220.93 77.662-220.93 173.46 0 4.655 0.24 9.266 0.7 13.827 4.855-92.426 101.81-166.19 220.72-166.19 116.09 0 211.26 70.303 220.23 159.64" fill="#eb9e50"/><path d="m199.26 496.4 30.089 8.019c1.476 0.388 2.356 1.9 1.968 3.375-0.387 1.475-1.899 2.356-3.374 1.967l-30.089-8.02c-1.475-0.387-2.356-1.898-1.969-3.372 0.387-1.477 1.9-2.356 3.375-1.969m-37.228-23.239 15.16-9.265c1.303-0.796 3.002-0.384 3.796 0.917 0.796 1.301 0.384 3.003-0.918 3.796l-15.161 9.267c-1.301 0.794-3.003 0.382-3.797-0.919-0.793-1.301-0.381-3.002 0.92-3.796m32.712-23.237c1.015 1.135 2.759 1.231 3.892 0.215 1.135-1.015 1.23-2.758 0.217-3.891l-15.236-16.996c-1.015-1.134-2.76-1.23-3.894-0.214-1.133 1.012-1.23 2.757-0.215 3.891zm67.935 45.085c-1.273 0.834-1.625 2.545-0.789 3.817 0.833 1.271 2.544 1.626 3.816 0.79l22.269-14.651c1.272-0.835 1.625-2.547 0.789-3.817-0.835-1.273-2.544-1.625-3.817-0.789zm-20.578 1.681c0.95 1.194 2.69 1.392 3.884 0.442 1.193-0.948 1.391-2.689 0.443-3.882l-12.6-15.824c-0.948-1.194-2.688-1.392-3.882-0.442s-1.393 2.687-0.444 3.882zm-103.13-57.046c0.191 1.511 1.573 2.579 3.083 2.39 1.511-0.191 2.581-1.574 2.39-3.084l-2.05-15.823c-0.191-1.51-1.572-2.581-3.083-2.39s-2.581 1.572-2.39 3.083zm-7.214-31.517c-1.515 0.155-2.619 1.513-2.465 3.028 0.154 1.516 1.511 2.621 3.027 2.465l19.34-2.051c1.515-0.154 2.619-1.511 2.465-3.028-0.155-1.514-1.513-2.619-3.028-2.464zm29.873-14.754c1.015 1.135 2.761 1.23 3.894 0.217 1.133-1.016 1.23-2.76 0.215-3.895l-14.65-16.406c-1.015-1.135-2.759-1.23-3.892-0.217-1.135 1.016-1.23 2.76-0.217 3.893zm-8.607-43.82c1.397-0.614 2.032-2.246 1.418-3.645-0.615-1.396-2.25-2.029-3.646-1.416l-19.87 8.764c-1.397 0.615-2.03 2.25-1.416 3.646 0.615 1.397 2.248 2.032 3.646 1.414zm22.653-11.198c0.405 1.469 1.927 2.332 3.396 1.926 1.467-0.404 2.329-1.928 1.925-3.396l-4.689-16.994c-0.405-1.471-1.927-2.33-3.396-1.924-1.469 0.404-2.329 1.927-1.925 3.394zm20.351-26.724c1.505 0.262 2.938-0.746 3.201-2.248 0.263-1.506-0.744-2.94-2.249-3.203l-33.403-5.862c-1.505-0.261-2.94 0.744-3.203 2.25-0.261 1.506 0.746 2.94 2.249 3.201zm20.656-7.951c0.998 1.152 2.741 1.277 3.893 0.281 1.155-0.998 1.281-2.742 0.283-3.893l-11.721-13.48c-0.995-1.152-2.741-1.277-3.893-0.279-1.153 0.994-1.278 2.738-0.281 3.892zm52.239-17.227c1.515 0.137 2.857-0.982 2.995-2.498 0.137-1.516-0.98-2.859-2.497-2.996l-31.646-2.928c-1.517-0.138-2.858 0.981-2.995 2.496-0.137 1.518 0.98 2.858 2.497 2.996zm42.826 2.147 4.66-11.77c0.562-1.42 2.169-2.119 3.591-1.559 1.421 0.561 2.117 2.17 1.557 3.59l-4.661 11.772c-0.559 1.42-2.169 2.117-3.59 1.556-1.421-0.558-2.117-2.17-1.557-3.589m-23.149-18.745c-1.499 0.276-2.492 1.713-2.218 3.213 0.274 1.498 1.713 2.491 3.212 2.217l25.198-4.687c1.499-0.274 2.491-1.713 2.219-3.211-0.276-1.498-1.713-2.493-3.213-2.217zm83.8 34.62c0.31 1.494 1.773 2.451 3.267 2.14 1.491-0.31 2.449-1.773 2.14-3.265l-5.135-24.309c-0.312-1.494-1.772-2.451-3.267-2.141-1.493 0.311-2.451 1.774-2.139 3.266zm-12.401 4.802c1.177 0.973 2.921 0.809 3.896-0.367 0.972-1.176 0.806-2.92-0.369-3.894l-16.611-13.752c-1.176-0.975-2.919-0.809-3.893 0.367s-0.81 2.92 0.368 3.892zm59.389 36.19c-0.196 1.511 0.87 2.898 2.381 3.095 1.51 0.196 2.895-0.871 3.091-2.38l3.517-26.37c0.196-1.511-0.868-2.898-2.379-3.095-1.511-0.196-2.898 0.871-3.095 2.381zm-29.679-19.395c-1.522 0.102-2.675 1.418-2.573 2.942 0.1 1.523 1.417 2.675 2.941 2.574l15.877-1.098c1.523-0.101 2.675-1.42 2.573-2.941-0.098-1.524-1.417-2.674-2.939-2.574zm63.439 69.906c1.158 0.993 2.901 0.854 3.893-0.304 0.99-1.156 0.855-2.903-0.304-3.893l-14.292-12.301c-1.158-0.99-2.903-0.853-3.893 0.303-0.992 1.16-0.855 2.904 0.304 3.897zm-41.286-24.359c-1.288 0.811-1.674 2.516-0.864 3.807 0.813 1.289 2.518 1.676 3.806 0.863l17.581-11.133c1.289-0.812 1.677-2.517 0.866-3.808-0.813-1.289-2.518-1.676-3.808-0.864zm-4.297 39.059c-1.405 0.595-2.057 2.219-1.46 3.622s2.22 2.057 3.623 1.46l12.306-5.274c1.404-0.598 2.056-2.221 1.459-3.625-0.597-1.403-2.22-2.057-3.623-1.459zm-6.811 53.803c0.477 1.446 2.037 2.23 3.481 1.753 1.447-0.479 2.231-2.037 1.753-3.483l-5.274-15.822c-0.477-1.446-2.035-2.23-3.481-1.753-1.447 0.477-2.23 2.037-1.751 3.484zm-53.736 25.179c-1.475 0.376-2.366 1.878-1.99 3.352 0.374 1.477 1.877 2.367 3.352 1.991l22.855-5.86c1.475-0.376 2.366-1.877 1.99-3.352-0.376-1.474-1.877-2.365-3.352-1.989zm-39.41 15.775c-0.531 1.426 0.197 3.015 1.624 3.546 1.426 0.532 3.015-0.195 3.545-1.622l9.376-25.199c0.531-1.428-0.194-3.017-1.621-3.547-1.428-0.531-3.018 0.194-3.549 1.622zm-47.989-0.604c-1.511-0.225-2.921 0.817-3.147 2.328s0.814 2.921 2.325 3.148l22.855 3.515c1.511 0.225 2.921-0.814 3.148-2.325 0.225-1.511-0.817-2.923-2.325-3.148zm-73.833-23.117c-1.332 0.741-1.81 2.423-1.072 3.755 0.74 1.331 2.423 1.811 3.754 1.071l21.097-11.719c1.331-0.74 1.81-2.423 1.07-3.755-0.738-1.331-2.421-1.81-3.753-1.069zm-33.899-22.933c-0.729 1.338-0.235 3.014 1.103 3.743 1.339 0.726 3.016 0.232 3.743-1.105l11.134-20.51c0.727-1.338 0.233-3.015-1.104-3.744-1.337-0.726-3.014-0.232-3.743 1.105z" fill="#69f"/><path d="m170.44 459.1c-0.47 1.449 0.323 3.01 1.775 3.482 1.45 0.47 3.01-0.325 3.481-1.775l4.102-12.599c0.471-1.451-0.323-3.011-1.775-3.482-1.449-0.472-3.01 0.322-3.481 1.774zm-16.13-33.128c-1.288 0.813-1.677 2.518-0.865 3.806 0.813 1.289 2.517 1.677 3.806 0.865l12.6-7.912c1.29-0.812 1.677-2.517 0.864-3.806-0.81-1.29-2.516-1.676-3.805-0.864zm11.072-14.643c0.978 1.171 2.722 1.326 3.893 0.345 1.171-0.978 1.324-2.722 0.345-3.893l-10.547-12.601c-0.981-1.17-2.724-1.323-3.895-0.344-1.17 0.978-1.325 2.721-0.346 3.893zm-45.177-11.855c-0.065 1.523 1.116 2.811 2.64 2.875 1.522 0.068 2.81-1.115 2.875-2.638l1.173-26.664c0.065-1.526-1.116-2.813-2.638-2.877-1.525-0.065-2.812 1.115-2.877 2.639zm28.073-29.464c-1.34 0.734-1.828 2.416-1.093 3.754 0.732 1.338 2.415 1.828 3.752 1.093l16.722-9.175c1.338-0.735 1.828-2.416 1.093-3.754-0.734-1.336-2.415-1.826-3.752-1.092zm7.382-25.115c0.054 1.523 1.332 2.712 2.856 2.662 1.522-0.055 2.712-1.334 2.659-2.856l-0.879-22.562c-0.054-1.524-1.332-2.715-2.854-2.66-1.524 0.052-2.715 1.332-2.661 2.855zm31.453-15.061c1.447 0.494 3.02-0.273 3.516-1.719 0.494-1.445-0.273-3.019-1.719-3.515l-17.029-5.854c-1.446-0.494-3.02 0.274-3.516 1.721-0.494 1.443 0.275 3.019 1.721 3.513zm25.319-23.635c1.497 0.266 2.932-0.73 3.201-2.228 0.267-1.5-0.731-2.934-2.229-3.201l-26.077-4.69c-1.499-0.267-2.932 0.731-3.201 2.229-0.267 1.5 0.73 2.933 2.228 3.201zm37.805-9.601c0.889 1.236 2.614 1.515 3.85 0.625 1.236-0.889 1.515-2.614 0.626-3.848l-12.013-16.705c-0.889-1.236-2.614-1.516-3.849-0.627-1.237 0.889-1.515 2.613-0.626 3.85zm181.84 62.244c-1.385 0.644-1.985 2.291-1.341 3.678 0.645 1.384 2.293 1.986 3.678 1.341l21.705-10.107c1.385-0.645 1.986-2.293 1.341-3.678s-2.293-1.986-3.678-1.342zm-133.55-67.182c1.003 1.147 2.747 1.264 3.894 0.26 1.146-1.004 1.263-2.746 0.259-3.893l-13.082-15c-1.004-1.146-2.749-1.263-3.896-0.259-1.144 1.003-1.261 2.746-0.258 3.892zm25.917 3.893c-0.172 1.515 0.918 2.885 2.435 3.058 1.516 0.172 2.886-0.916 3.059-2.433l2.051-17.873c0.174-1.516-0.918-2.889-2.432-3.059-1.517-0.174-2.888 0.914-3.06 2.432zm34.919-0.151c1.361 0.678 3.019 0.127 3.699-1.234 0.679-1.361 0.126-3.02-1.234-3.699l-16.995-8.498c-1.36-0.68-3.02-0.127-3.699 1.232-0.679 1.363-0.127 3.022 1.234 3.699zm28.382 25.473c0.704 1.348 2.372 1.873 3.721 1.168 1.348-0.705 1.873-2.371 1.169-3.719l-9.378-17.875c-0.704-1.349-2.371-1.871-3.72-1.168-1.349 0.705-1.871 2.371-1.168 3.721zm14.365 31.559c-0.962 1.185-0.782 2.923 0.401 3.884 1.182 0.961 2.921 0.782 3.881-0.402l8.792-10.842c0.96-1.181 0.781-2.92-0.402-3.881-1.182-0.963-2.92-0.783-3.882 0.401zm13.078 44.916c-0.59 1.404 0.068 3.022 1.471 3.612 1.402 0.592 3.023-0.066 3.613-1.47l3.223-7.617c0.591-1.404-0.067-3.021-1.469-3.613-1.404-0.592-3.022 0.066-3.613 1.47zm1.769 33.156c0.89 1.237 2.613 1.517 3.85 0.626 1.236-0.889 1.516-2.614 0.626-3.847l-9.476-13.135c-0.889-1.234-2.613-1.515-3.848-0.626-1.236 0.89-1.516 2.614-0.627 3.85zm-51.567 21.415c-1.522 0.102-2.674 1.419-2.574 2.942 0.102 1.522 1.419 2.675 2.942 2.573l21.096-1.465c1.523-0.1 2.675-1.417 2.574-2.941-0.101-1.523-1.419-2.675-2.942-2.573zm2.802 19.941c0.219 1.511 1.625 2.556 3.136 2.337 1.511-0.222 2.557-1.627 2.337-3.136-0.36-2.45-0.671-3.673-0.979-4.89-0.2-0.796-0.402-1.594-0.588-2.615-0.274-1.498-1.714-2.489-3.211-2.217-1.499 0.273-2.492 1.713-2.219 3.213 0.248 1.354 0.452 2.155 0.654 2.96 0.273 1.078 0.548 2.165 0.87 4.348m-36.489 30.625c-0.622 1.393 2e-3 3.024 1.395 3.646 1.39 0.621 3.021-4e-3 3.643-1.395l6.445-14.359c0.623-1.39-2e-3 -3.021-1.394-3.643-1.391-0.622-3.022 4e-3 -3.644 1.394zm-58.624-6.026c-1.522 0.107-2.671 1.429-2.562 2.951 0.107 1.523 1.429 2.671 2.952 2.564l19.924-1.465c1.525-0.109 2.671-1.431 2.565-2.953-0.109-1.522-1.432-2.671-2.953-2.564zm-48.41-8.445c-1.494 0.305-2.457 1.763-2.152 3.256 0.305 1.492 1.763 2.455 3.254 2.152l28.422-5.862c1.494-0.304 2.457-1.761 2.153-3.255-0.306-1.491-1.761-2.455-3.255-2.151zm-27.564-33.125c-1.014-1.141-2.762-1.239-3.902-0.226-1.141 1.014-1.242 2.764-0.228 3.905l11.834 13.265c1.015 1.141 2.764 1.242 3.904 0.227 1.141-1.013 1.241-2.762 0.227-3.902z" fill="#fc0"/><path d="m175.66 351.59c0.351 1.486 1.843 2.406 3.331 2.057 1.486-0.354 2.407-1.846 2.054-3.334l-5.021-21.088c-0.351-1.487-1.842-2.409-3.33-2.055-1.488 0.35-2.408 1.844-2.057 3.33zm29.574-22.672c1.038 1.117 2.788 1.18 3.903 0.141 1.116-1.039 1.179-2.787 0.141-3.905l-14.921-16.048c-1.038-1.116-2.787-1.18-3.903-0.141s-1.179 2.787-0.141 3.902zm22.192-22.51c-0.651 1.377-0.059 3.026 1.32 3.676 1.377 0.65 3.026 0.061 3.676-1.32l11.171-23.705c0.651-1.379 0.059-3.028-1.32-3.676-1.377-0.651-3.025-0.061-3.676 1.32zm61.466-13.117c1.374 0.662 3.025 0.086 3.687-1.287s0.088-3.025-1.285-3.688l-19.72-9.576c-1.373-0.662-3.025-0.086-3.689 1.287-0.662 1.373-0.086 3.026 1.288 3.688zm119.07 80.705c0.356 1.481 1.851 2.391 3.331 2.033 1.481-0.357 2.39-1.851 2.033-3.332l-4.242-17.427c-0.357-1.481-1.85-2.391-3.331-2.032-1.48 0.356-2.391 1.848-2.033 3.33zm-31.587-55.603c-1.154 1.004-1.274 2.75-0.27 3.902 1.003 1.154 2.753 1.275 3.905 0.271l18.166-15.822c1.152-1.004 1.274-2.752 0.27-3.904-1.003-1.154-2.752-1.275-3.904-0.272zm81.754 108.2c0.346 1.489 1.833 2.414 3.319 2.069 1.489-0.346 2.413-1.833 2.069-3.322l-4.69-19.924c-0.344-1.487-1.833-2.412-3.321-2.067-1.486 0.346-2.411 1.833-2.065 3.32zm-47.14 38.162-2.13-16.163c-0.195-1.51 0.87-2.897 2.38-3.091 1.511-0.197 2.898 0.87 3.095 2.379l2.129 16.161c0.196 1.51-0.868 2.897-2.379 3.092-1.512 0.197-2.898-0.868-3.095-2.378m11.297-17.282c1.111 1.043 2.861 0.991 3.906-0.118 1.042-1.11 0.99-2.86-0.119-3.905l-22.547-21.251c-1.11-1.046-2.859-0.992-3.904 0.118-1.044 1.108-0.99 2.859 0.118 3.903zm-74.303 15.141c0.494-1.441-0.27-3.01-1.71-3.504-1.441-0.496-3.01 0.267-3.504 1.707l-5.275 15.238c-0.496 1.439 0.269 3.01 1.707 3.504 1.441 0.496 3.01-0.268 3.506-1.709zm38.576 22.543c0 1.527 1.239 2.769 2.767 2.769 1.529 0 2.768-1.242 2.768-2.769v-14.651c0-1.528-1.239-2.768-2.768-2.768-1.528 0-2.767 1.24-2.767 2.768zm-17.053 18.305c-1.219 0.914-1.465 2.642-0.553 3.861 0.913 1.217 2.644 1.465 3.861 0.552 1.932-1.45 1.968-1.464 2.148-1.519 0.44-0.137 1.112-0.345 2.705-1.142 1.365-0.68 1.923-2.343 1.243-3.709-0.678-1.366-2.342-1.923-3.708-1.244-1.224 0.613-1.623 0.737-1.883 0.817-0.919 0.288-1.09 0.341-3.813 2.384m-45.997 9.52c-1.463 0.421-2.305 1.953-1.883 3.416 0.424 1.463 1.955 2.306 3.419 1.883l26.371-7.619c1.463-0.422 2.306-1.954 1.883-3.417-0.424-1.463-1.955-2.306-3.419-1.883zm-38.426-13.951c-1.223-0.906-2.953-0.65-3.858 0.574-0.908 1.223-0.652 2.953 0.572 3.861l16.224 12.037c1.223 0.908 2.953 0.651 3.859-0.574 0.908-1.223 0.65-2.953-0.572-3.859zm-97.2-14.546c-1.27-0.834-2.981-0.48-3.817 0.79-0.833 1.273-0.48 2.983 0.79 3.818l15.79 10.39c1.27 0.836 2.981 0.481 3.817-0.79 0.835-1.27 0.482-2.981-0.79-3.817zm-35.628 4.071c-0.872 1.249-0.567 2.968 0.681 3.84 1.247 0.872 2.968 0.567 3.84-0.682l15.099-21.599c0.869-1.248 0.566-2.969-0.683-3.84-1.248-0.872-2.967-0.566-3.838 0.681zm-18.848-31.108c-0.525 1.433 0.212 3.021 1.644 3.547 1.433 0.524 3.022-0.212 3.547-1.645l6.054-16.356c0.525-1.435-0.211-3.024-1.644-3.548s-3.022 0.212-3.548 1.644zm-16.362-42.72c-1.127 1.027-1.209 2.776-0.183 3.905 1.026 1.127 2.776 1.209 3.905 0.183l22.81-20.751c1.129-1.026 1.211-2.778 0.185-3.905-1.028-1.129-2.778-1.211-3.905-0.185zm-4.517-71.757c-0.202-1.512-1.593-2.572-3.104-2.369-1.511 0.201-2.571 1.592-2.369 3.103l3.13 23.352c0.202 1.51 1.593 2.57 3.104 2.369 1.509-0.203 2.571-1.594 2.367-3.104z" fill="#f9f"/><path d="m554.97 506.31c-58.933 11.4-111.67-10.801-117.8-49.587-6.126-38.784 36.681-79.467 95.612-90.868 58.933-11.396 111.67 10.803 117.8 49.591 6.126 38.784-36.682 79.464-95.612 90.864m13.452 85.191c120.54-23.314 206.21-118.5 191.35-212.6-14.86-94.099-124.62-151.48-245.17-128.16-120.54 23.317-206.21 118.5-191.35 212.6 14.86 94.101 124.62 151.48 245.17 128.16" fill="#fcb874"/><path d="m554.97 506.31c-58.933 11.4-111.67-10.801-117.8-49.587-6.126-38.784 36.681-79.467 95.612-90.868 58.933-11.396 111.67 10.805 117.8 49.591 6.126 38.784-36.682 79.464-95.612 90.864m13.452 85.191c50.436-9.755 94.759-32.098 128.18-61.673 1.033-2.948 3.132-5.752 7.225-8.522 14.079-9.531-12.125-31.445 6.361-46.933 79.377-66.5-10.233-45.173 5.12-63.206 24.593-28.89 25.23-51.372-8.462-45.036-26.519 4.984-27.245-1.434-15.914-18.186 23.96-35.418-20.279-25.398-34.204-15.103-21.183 15.658-17.8-2.192-21.749-27.194-3.398-21.513-26.072 15.659-48.897 11.268-25.469-4.9 9.394-21.598 6.213-32.742-6.391-22.408-38.33 19.127-43.391 22.748-15.322 10.951-18.811-1.461-26.022-15.207-8.002-15.248-24.326 1.814-23.086 10.695 10.044 71.91-36.726-30.861-40.86 23.553-4.109 54.127-26.934-18.393-34.736 20.976-8.701 43.907-27.031 20.383-41.642 26.02-4.655 1.795 0.378 35.977-11.009 34.244-13.542-2.063-18.216-7.553-25.849 3.765-6.642 9.847 18.703 22.998 7.195 27.228-37.432 13.756 3.962 22.433 0.176 31.251-5.01 11.68-16.43 15.746-7.203 25.162 12.816 13.084 21.563 14.864 26.001 17.468 9.966 5.845 1.683 18.632 5.83 25.886 8.03 14.046 23.162 9.317 20.729 15.508-2.447 6.232-2.117 10.114-0.388 13.452 45.341 26.576 106.34 36.969 170.39 24.578" fill="#381c00"/><path d="m410.81 422.95c-5.703 11.144-9.27 23.359-9.978 36.575-0.3 5.608-0.017 11.208 0.853 16.713 0.87 5.504 2.318 10.88 4.319 16.042 22.369 57.7 98.285 70.055 153.41 59.392 55.123-10.664 122.76-50.785 126.11-113.46 0.298-5.606 0.016-11.208-0.854-16.713-0.508-3.21-1.214-6.379-2.11-9.485-0.553-1.923-0.077-3.878 1.316-5.392 1.389-1.515 3.305-2.16 5.272-1.777 1.062 0.208 2.141 0.376 3.229 0.514 1.785 0.223 3.197 1.188 4.032 2.76 0.84 1.572 0.866 3.312 0.084 4.969-3.491 7.393-4.43 15.629-1.927 23.73 1.469 4.763 3.572 8.477 6.147 11.436 5.086 5.839 4.368 14.901-1.603 20.265-9.148 8.216-14.959 18.866-16.371 31.054-0.744 6.444-0.187 12.646 1.137 18.813 0.836 3.913 0.13 7.638-2.107 11.072-0.102 0.155-0.201 0.308-0.298 0.462-33.372 28.107-74.728 46.314-116.9 54.469-46.017 8.901-95.762 6.169-138.51-11.868-4.135-1.745-6.909-5-7.991-9.381-0.45-1.822-1.072-3.612-1.871-5.344-2.977-6.459-7.587-10.915-13.313-13.964-4.134-2.199-6.661-5.934-7.197-10.639-1.381-12.119-6.965-22.429-18.788-29.362-0.038-0.025-0.076-0.048-0.112-0.069-5.28-3.084-7.805-8.956-6.481-15.076 0.403-1.861 0.645-3.754 0.718-5.654 0.156-4.098-0.382-7.75-1.454-11.061-1.196-3.685-0.914-7.325 0.842-10.89 0.801-1.629 1.479-3.344 2.017-5.133 0.424-1.416 0.75-2.793 0.987-4.131 0.746-4.227 3.009-7.634 6.64-9.997 9.118-5.937 13.832-14.81 16.333-24.598 0.714-2.787 2.969-4.794 5.808-5.172 0.282-0.038 0.563-0.078 0.843-0.12 2.925-0.438 5.608 0.688 7.277 3.055 1.667 2.367 1.845 5.303 0.482 7.966" fill="#630"/><path d="m554.97 506.31c54.146-10.473 94.674-45.667 96.148-81.397 1.515 3.543 2.608 7.266 3.221 11.16 6.125 38.786-36.681 79.468-95.613 90.866-58.931 11.4-111.67-10.801-117.79-49.587-0.498-3.147-0.668-6.31-0.538-9.47 13.563 31.743 61.557 48.683 114.58 38.428m205.73-120.23c-0.248-2.394-0.546-4.789-0.924-7.184-14.86-94.099-124.62-151.48-245.17-128.16-120.54 23.317-206.21 118.5-191.35 212.6 0.722 4.574 1.675 9.054 2.835 13.448-9.542-91.714 74.799-182.7 192.27-205.42 114.68-22.183 219.61 28.682 242.33 114.72" fill="#eb9e50"/><path d="m475.84 572c-1.517-0.1-2.873 1.055-3.027 2.577-0.156 1.522 0.949 2.839 2.465 2.938l30.971 2.129c1.517 0.099 2.873-1.055 3.027-2.58 0.156-1.522-0.949-2.838-2.465-2.938zm-40.383-15.713 13.542-11.999c1.162-1.029 2.907-0.949 3.892 0.177 0.986 1.127 0.843 2.876-0.319 3.905l-13.541 11.999c-1.161 1.03-2.907 0.95-3.892-0.178-0.987-1.127-0.844-2.875 0.318-3.904m28.712-29.075c1.179 0.919 2.917 0.681 3.88-0.532s0.788-2.944-0.391-3.865l-17.688-13.783c-1.179-0.919-2.916-0.681-3.88 0.532-0.961 1.214-0.786 2.946 0.392 3.865zm74.105 31.303c-1.125 1.062-1.208 2.812-0.186 3.899 1.022 1.091 2.768 1.11 3.894 0.047l19.724-18.647c1.128-1.062 1.212-2.81 0.19-3.899-1.023-1.091-2.769-1.11-3.894-0.048zm-20.066 5.583c1.124 0.99 2.871 0.853 3.905-0.307 1.033-1.16 0.958-2.907-0.164-3.899l-14.902-13.134c-1.124-0.992-2.873-0.855-3.905 0.307-1.033 1.16-0.958 2.907 0.166 3.897zm-110.73-36.327c0.421 1.448 1.953 2.234 3.416 1.759 1.461-0.477 2.304-2.037 1.882-3.486l-4.48-15.15c-0.424-1.448-1.953-2.234-3.417-1.759-1.463 0.475-2.306 2.039-1.885 3.486zm-12.017-29.578c-1.473 0.443-2.354 1.986-1.965 3.445 0.388 1.46 1.901 2.286 3.373 1.843l18.786-5.71c1.473-0.442 2.355-1.985 1.965-3.444-0.387-1.46-1.899-2.286-3.372-1.843zm27.225-20.2c1.176 0.92 2.914 0.679 3.878-0.533 0.962-1.212 0.788-2.945-0.392-3.864l-17.016-13.317c-1.178-0.922-2.917-0.683-3.88 0.532-0.963 1.211-0.788 2.943 0.389 3.865zm-15.302-41.398c1.286-0.872 1.658-2.595 0.836-3.851-0.824-1.253-2.537-1.565-3.822-0.695l-18.269 12.406c-1.286 0.872-1.657 2.596-0.836 3.851 0.826 1.256 2.537 1.567 3.821 0.694zm20.642-15.328c0.628 1.366 2.265 1.922 3.652 1.242 1.388-0.676 2.003-2.339 1.375-3.703l-7.266-15.797c-0.63-1.363-2.266-1.921-3.653-1.241-1.389 0.679-2.005 2.336-1.375 3.702zm15.957-30.138c1.529-0.031 2.788-1.293 2.815-2.822 0.026-1.528-1.191-2.744-2.719-2.715l-33.906 0.627c-1.528 0.029-2.789 1.293-2.816 2.82-0.025 1.529 1.191 2.746 2.718 2.715zm19.174-11.76c1.164 0.944 2.907 0.735 3.89-0.467 0.984-1.199 0.84-2.935-0.324-3.877l-13.67-11c-1.164-0.943-2.906-0.73-3.89 0.467s-0.838 2.936 0.324 3.879zm48.934-26.902c1.519-0.154 2.672-1.512 2.571-3.026-0.098-1.515-1.412-2.619-2.931-2.464l-31.717 3.168c-1.519 0.156-2.671 1.511-2.572 3.025 0.099 1.518 1.412 2.621 2.932 2.467zm42.64-6.074 2.781-12.454c0.333-1.501 1.813-2.492 3.303-2.214 1.492 0.279 2.429 1.726 2.097 3.23l-2.777 12.451c-0.334 1.502-1.817 2.494-3.307 2.215-1.489-0.279-2.428-1.726-2.097-3.228m-25.775-13.987c-1.438 0.555-2.194 2.158-1.692 3.578 0.504 1.42 2.077 2.12 3.515 1.565l24.166-9.42c1.439-0.555 2.197-2.16 1.695-3.578-0.504-1.42-2.079-2.119-3.518-1.565zm88.155 17.99-8.841-22.896c-0.54-1.406 0.179-3.027 1.606-3.617s3.021 0.072 3.558 1.48l8.843 22.895c0.538 1.406-0.18 3.025-1.607 3.617-1.426 0.588-3.021-0.072-3.559-1.479m-11.503 7.086c1.313 0.733 3.009 0.237 3.789-1.105 0.779-1.34 0.345-3.022-0.967-3.754l-18.544-10.336c-1.313-0.73-3.01-0.234-3.788 1.108-0.781 1.339-0.346 3.023 0.966 3.753zm64.283 24.2c0.04 1.521 1.308 2.681 2.831 2.586 1.521-0.098 2.725-1.409 2.685-2.932l-0.616-26.572c-0.04-1.524-1.309-2.68-2.831-2.586-1.522 0.097-2.728 1.408-2.688 2.931zm-32.329-13.379c-1.489 0.39-2.423 1.904-2.087 3.381 0.336 1.476 1.816 2.355 3.303 1.964l15.517-4.111c1.49-0.391 2.423-1.904 2.088-3.381-0.336-1.476-1.817-2.355-3.307-1.965zm73.512 56.541c1.297 0.752 3.003 0.286 3.8-1.041 0.802-1.328 0.394-3.014-0.903-3.767l-16.025-9.35c-1.301-0.752-3.003-0.284-3.799 1.041-0.802 1.328-0.398 3.015 0.9 3.768zm-44.562-16.037c-1.147 1.043-1.267 2.792-0.265 3.902 1.003 1.113 2.749 1.166 3.896 0.124l15.64-14.296c1.149-1.045 1.267-2.793 0.263-3.904-0.999-1.112-2.747-1.166-3.892-0.121zm1.812 39.187c-1.293 0.854-1.686 2.573-0.881 3.838 0.809 1.262 2.514 1.594 3.807 0.742l11.34-7.533c1.293-0.855 1.685-2.574 0.881-3.838-0.809-1.265-2.514-1.597-3.81-0.743zm1.619 54.15c0.696 1.33 2.359 1.801 3.711 1.055 1.355-0.744 1.887-2.427 1.191-3.755l-7.665-14.533c-0.695-1.328-2.358-1.802-3.711-1.058-1.354 0.746-1.886 2.427-1.19 3.757zm-49.182 35.001c-1.399 0.649-2.045 2.295-1.446 3.674 0.601 1.376 2.222 1.963 3.621 1.313l21.67-10.124c1.399-0.651 2.045-2.295 1.447-3.672-0.6-1.378-2.221-1.965-3.621-1.315zm-36.484 23.023c-0.302 1.506 0.661 2.927 2.153 3.175 1.493 0.248 2.949-0.769 3.254-2.272l5.352-26.543c0.302-1.503-0.661-2.926-2.153-3.174-1.492-0.249-2.949 0.769-3.253 2.271zm-47.502 8.579c-1.528 0.069-2.76 1.36-2.749 2.886 0.012 1.529 1.259 2.715 2.786 2.648l23.124-0.913c1.528-0.067 2.76-1.359 2.749-2.885-0.011-1.528-1.259-2.714-2.786-2.648zm-76.525-8.596c-1.201 0.981-1.413 2.724-0.477 3.892 0.939 1.165 2.673 1.314 3.873 0.334l19.025-15.544c1.2-0.98 1.413-2.724 0.476-3.891-0.938-1.166-2.673-1.315-3.875-0.334zm-37.046-16.048c-0.514 1.451 0.236 3.004 1.669 3.462 1.435 0.459 3.016-0.346 3.525-1.799l7.82-22.274c0.51-1.453-0.237-3.006-1.671-3.466-1.435-0.458-3.014 0.347-3.525 1.801z" fill="#69f"/><path d="m441.59 540.86c-0.24 1.515 0.784 2.896 2.293 3.081 1.505 0.185 2.923-0.893 3.163-2.407l2.099-13.162c0.24-1.514-0.788-2.895-2.291-3.08-1.508-0.185-2.927 0.894-3.167 2.407zm-21.074-29.456c-1.148 1.044-1.267 2.793-0.263 3.903 1 1.11 2.745 1.166 3.894 0.122l11.218-10.179c1.149-1.044 1.267-2.793 0.266-3.903-1.002-1.112-2.747-1.167-3.896-0.124zm8.667-16.499c1.146 0.962 2.893 0.78 3.899-0.405 1.003-1.186 0.887-2.927-0.264-3.891l-12.375-10.363c-1.148-0.96-2.895-0.778-3.898 0.407-1.006 1.184-0.888 2.928 0.261 3.889zm-46.47-3.012c0.171 1.509 1.539 2.547 3.054 2.321 1.514-0.228 2.603-1.635 2.432-3.143l-2.98-26.415c-0.17-1.509-1.537-2.549-3.052-2.322s-2.602 1.633-2.433 3.142zm23.162-34.305c-1.209 0.977-1.431 2.722-0.496 3.895 0.931 1.174 2.667 1.334 3.875 0.357l15.097-12.207c1.207-0.976 1.43-2.722 0.498-3.897-0.932-1.173-2.669-1.334-3.877-0.357zm3.398-26.082c0.288 1.489 1.738 2.411 3.233 2.069 1.498-0.344 2.475-1.829 2.185-3.312l-4.37-21.993c-0.288-1.486-1.735-2.411-3.231-2.068-1.495 0.343-2.474 1.828-2.186 3.313zm28.736-20.804c1.506 0.211 2.942-0.843 3.207-2.358 0.266-1.515-0.738-2.915-2.243-3.125l-17.732-2.495c-1.505-0.21-2.941 0.845-3.205 2.359-0.264 1.513 0.738 2.913 2.243 3.125zm21.347-28.055c1.52-0.021 2.783-1.277 2.815-2.798 0.031-1.524-1.177-2.741-2.699-2.717l-26.488 0.377c-1.522 0.023-2.785 1.279-2.815 2.8-0.032 1.522 1.175 2.741 2.697 2.717zm35.858-16.652c1.07 1.043 2.815 0.99 3.9-0.121 1.082-1.109 1.092-2.858 0.022-3.9l-14.458-14.114c-1.071-1.043-2.818-0.99-3.902 0.121-1.083 1.108-1.09 2.858-0.022 3.901zm189.29 26.391c-1.271 0.898-1.607 2.63-0.756 3.869 0.852 1.236 2.572 1.511 3.843 0.613l19.873-14.074c1.266-0.897 1.606-2.629 0.756-3.867-0.855-1.239-2.575-1.514-3.842-0.618zm-142.35-40.467c1.169 0.933 2.911 0.715 3.888-0.49s0.82-2.942-0.348-3.875l-15.253-12.235c-1.169-0.931-2.909-0.713-3.886 0.49-0.979 1.204-0.822 2.94 0.347 3.875zm26.207-1.133c0.067 1.523 1.355 2.662 2.878 2.541 1.527-0.119 2.711-1.451 2.647-2.975l-0.746-17.947c-0.065-1.525-1.355-2.662-2.879-2.541-1.524 0.119-2.711 1.451-2.646 2.973zm34.473-6.82c1.45 0.41 3.003-0.453 3.464-1.918 0.46-1.467-0.343-2.99-1.795-3.397l-18.107-5.099c-1.448-0.409-3 0.451-3.462 1.918-0.46 1.466 0.341 2.99 1.793 3.398zm31.991 19.597c0.906 1.192 2.633 1.385 3.856 0.438 1.224-0.949 1.484-2.688 0.578-3.879l-12.035-15.764c-0.907-1.189-2.635-1.384-3.858-0.435-1.222 0.951-1.482 2.685-0.576 3.877zm19.084 28.254c-0.766 1.348-0.318 3.022 1 3.741 1.316 0.716 3.006 0.207 3.773-1.137l7.003-12.33c0.767-1.346 0.319-3.02-0.999-3.737-1.317-0.718-3.007-0.211-3.774 1.135zm19.889 41.62c-0.368 1.492 0.534 2.955 2.013 3.267 1.478 0.314 2.974-0.642 3.34-2.133l2.003-8.101c0.369-1.491-0.534-2.955-2.012-3.266-1.479-0.314-2.975 0.643-3.341 2.133zm6.889 32.229c1.072 1.044 2.819 0.991 3.903-0.12 1.079-1.11 1.091-2.855 0.018-3.901l-11.395-11.087c-1.07-1.043-2.818-0.99-3.899 0.12-1.084 1.109-1.093 2.856-0.024 3.9zm-47.621 30.891c-1.488 0.389-2.42 1.904-2.085 3.38 0.336 1.477 1.816 2.356 3.304 1.967l20.614-5.471c1.49-0.389 2.423-1.905 2.087-3.38-0.336-1.476-1.816-2.358-3.305-1.967zm5.861 19.05c0.452 1.442 2.003 2.201 3.462 1.696 1.458-0.506 2.274-2.085 1.822-3.528-0.736-2.337-1.234-3.479-1.725-4.614-0.322-0.744-0.646-1.49-0.986-2.457-0.504-1.417-2.081-2.118-3.518-1.563-1.438 0.556-2.196 2.158-1.692 3.579 0.454 1.282 0.78 2.032 1.105 2.781 0.435 1.01 0.876 2.025 1.532 4.106m-31.297 37.055c-0.397 1.487 0.473 2.971 1.941 3.314 1.472 0.346 2.989-0.582 3.387-2.066l4.142-15.335c0.396-1.484-0.474-2.969-1.945-3.314-1.47-0.343-2.985 0.582-3.383 2.066zm-58.847 5.283c-1.49 0.397-2.417 1.913-2.076 3.39 0.344 1.474 1.828 2.348 3.316 1.952l19.456-5.247c1.488-0.397 2.415-1.915 2.076-3.39-0.344-1.476-1.828-2.35-3.316-1.953zm-49.135 0.956c-1.427 0.585-2.154 2.201-1.62 3.609 0.531 1.408 2.121 2.075 3.548 1.49l27.169-11.187c1.427-0.583 2.153-2.201 1.621-3.607-0.534-1.41-2.123-2.077-3.55-1.492zm-32.367-27.27c-1.178-0.925-2.923-0.691-3.891 0.523-0.972 1.215-0.8 2.951 0.379 3.878l13.751 10.77c1.176 0.927 2.921 0.693 3.891-0.522 0.969-1.214 0.797-2.952-0.382-3.879z" fill="#fc0"/><path d="m430.06 434.27c0.578 1.393 2.196 2.013 3.609 1.381 1.416-0.629 2.093-2.27 1.515-3.664l-8.232-19.756c-0.578-1.393-2.195-2.013-3.611-1.381-1.413 0.63-2.091 2.27-1.513 3.664zm25.7-27.922c1.2 0.899 2.937 0.626 3.878-0.606 0.942-1.235 0.732-2.963-0.467-3.862l-17.229-12.915c-1.199-0.897-2.937-0.625-3.878 0.609-0.942 1.235-0.734 2.963 0.466 3.862zm18.431-26.35c-0.429 1.479 0.411 2.985 1.873 3.36 1.465 0.375 3.001-0.522 3.428-2l7.361-25.42c0.428-1.479-0.413-2.985-1.875-3.36-1.464-0.375-2.998 0.52-3.427 1.998zm58.689-24.629c1.459 0.387 3.003-0.494 3.443-1.969 0.441-1.476-0.386-2.99-1.843-3.376l-20.966-5.637c-1.46-0.391-3.003 0.492-3.444 1.967-0.442 1.476 0.383 2.988 1.843 3.377zm130.14 56.519c0.584 1.385 2.201 1.995 3.608 1.36 1.406-0.635 2.074-2.274 1.492-3.661l-6.894-16.308c-0.584-1.384-2.198-1.996-3.606-1.361-1.407 0.637-2.075 2.275-1.491 3.662zm-39.827-48.581c-0.984 1.205-0.834 2.947 0.338 3.886 1.169 0.942 2.916 0.725 3.899-0.48l15.492-19.014c0.984-1.207 0.832-2.947-0.338-3.886-1.171-0.942-2.916-0.727-3.9 0.48zm97.545 90.655c0.576 1.395 2.187 2.019 3.602 1.395 1.416-0.624 2.098-2.261 1.526-3.655l-7.722-18.676c-0.573-1.396-2.186-2.02-3.602-1.396-1.415 0.624-2.098 2.262-1.525 3.657zm-40.647 46.49-4.612-15.467c-0.428-1.446 0.409-3.013 1.872-3.493 1.461-0.481 2.997 0.302 3.424 1.747l4.611 15.468c0.427 1.445-0.409 3.011-1.869 3.49-1.463 0.483-2.999-0.299-3.426-1.745m8.481-19.134c1.259 0.812 2.98 0.428 3.838-0.862 0.858-1.289 0.534-2.998-0.725-3.812l-25.57-16.565c-1.258-0.815-2.978-0.43-3.836 0.862-0.861 1.287-0.536 2.997 0.723 3.812zm-71.058 29.071c0.263-1.507-0.735-2.904-2.234-3.115-1.499-0.212-2.929 0.839-3.197 2.348l-2.846 15.974c-0.267 1.51 0.733 2.906 2.23 3.117 1.5 0.21 2.933-0.839 3.199-2.35zm41.606 14.773c0.236 1.501 1.653 2.482 3.162 2.19 1.511-0.292 2.543-1.748 2.307-3.249l-2.272-14.39c-0.237-1.501-1.656-2.483-3.165-2.191-1.51 0.292-2.543 1.747-2.304 3.248zm-14.008 21.239c-1.062 1.129-1.038 2.873 0.053 3.895 1.092 1.023 2.839 0.936 3.901-0.194 1.683-1.793 1.717-1.812 1.887-1.9 0.412-0.219 1.044-0.553 2.493-1.64 1.246-0.932 1.538-2.669 0.655-3.881-0.883-1.213-2.612-1.442-3.858-0.513-1.115 0.834-1.487 1.032-1.733 1.162-0.863 0.458-1.025 0.544-3.398 3.071m-43.962 18.138c-1.381 0.694-1.976 2.36-1.33 3.716s2.288 1.893 3.669 1.196l24.87-12.522c1.379-0.694 1.975-2.359 1.327-3.716-0.642-1.356-2.287-1.89-3.666-1.198zm-40.125-6.358c-1.348-0.658-3.018-0.074-3.723 1.301-0.706 1.376-0.186 3.023 1.165 3.682l17.893 8.723c1.351 0.659 3.021 0.075 3.724-1.3 0.708-1.374 0.185-3.026-1.165-3.683zm-98.28 4.286c-1.387-0.578-3.021 0.096-3.649 1.505-0.627 1.408-0.013 3.022 1.374 3.598l17.209 7.188c1.386 0.579 3.021-0.095 3.649-1.505 0.627-1.408 0.013-3.02-1.372-3.598zm-34.566 10.807c-0.667 1.393-0.099 3.024 1.268 3.642 1.368 0.618 3.019-0.012 3.688-1.402l11.566-24.103c0.666-1.393 0.099-3.026-1.268-3.642-1.371-0.618-3.02 9e-3 -3.688 1.402zm-23.445-26.955c-0.298 1.507 0.677 2.929 2.175 3.171 1.497 0.24 2.951-0.786 3.248-2.295l3.444-17.224c0.295-1.508-0.677-2.928-2.175-3.169-1.497-0.242-2.953 0.786-3.248 2.293zm-22.789-38.834c-0.956 1.223-0.764 2.957 0.424 3.869 1.189 0.914 2.93 0.66 3.886-0.564l19.314-24.743c0.956-1.224 0.768-2.959-0.423-3.873-1.19-0.911-2.93-0.656-3.886 0.568zm-15.594-69.621c-0.435-1.445-1.973-2.222-3.436-1.734-1.46 0.487-2.293 2.056-1.858 3.502l6.714 22.339c0.436 1.444 1.973 2.22 3.434 1.734 1.462-0.489 2.293-2.058 1.858-3.502z" fill="#f9f"/></g></g></svg>
